<?xml version="1.0" encoding="UTF-8" standalone="no"?>
<!-- Generator: Adobe Illustrator 24.2.1, SVG Export Plug-In . SVG Version: 6.00 Build 0)  -->

<svg
   version="1.1"
   id="Layer_1"
   x="0px"
   y="0px"
   viewBox="0 0 2000 2000"
   style="enable-background:new 0 0 2000 2000;"
   xml:space="preserve"
   sodipodi:docname="track-a-day (Rebrand).svg"
   inkscape:version="1.1.1 (3bf5ae0d25, 2021-09-20)"
   inkscape:export-filename="..\..\png-files\track-a-day.png"
   inkscape:export-xdpi="96"
   inkscape:export-ydpi="96"
   xmlns:inkscape="http://www.inkscape.org/namespaces/inkscape"
   xmlns:sodipodi="http://sodipodi.sourceforge.net/DTD/sodipodi-0.dtd"
   xmlns="http://www.w3.org/2000/svg"
   xmlns:svg="http://www.w3.org/2000/svg"><defs
   id="defs3"><rect
   x="27365.032"
   y="6399.3164"
   width="35.355339"
   height="141.42136"
   id="rect52712" /><rect
   x="2680"
   y="2280"
   width="1604"
   height="1972"
   id="rect3" /><rect
   x="1711.1984"
   y="678.82251"
   width="1209.1312"
   height="2271.4398"
   id="rect2" /><rect
   x="345.06811"
   y="229.1026"
   width="633.56768"
   height="1530.1791"
   id="rect1" />
		
		
		
	
	
</defs><sodipodi:namedview
   id="namedview3"
   pagecolor="#ffffff"
   bordercolor="#000000"
   borderopacity="0.25"
   inkscape:showpageshadow="2"
   inkscape:pageopacity="0.0"
   inkscape:pagecheckerboard="0"
   inkscape:deskcolor="#d1d1d1"
   inkscape:zoom="0.01"
   inkscape:cx="-2150"
   inkscape:cy="-18150"
   inkscape:window-width="1920"
   inkscape:window-height="1017"
   inkscape:window-x="1912"
   inkscape:window-y="-8"
   inkscape:window-maximized="1"
   inkscape:current-layer="Layer_1"
   showguides="true"
   inkscape:pageshadow="2"
   showgrid="false"
   inkscape:lockguides="true"
   inkscape:guide-bbox="true"><sodipodi:guide
     position="1079.9961,1904.3008"
     orientation="0,-1"
     id="guide3"
     inkscape:locked="true" /><sodipodi:guide
     position="198.49609,1039.9297"
     orientation="1,0"
     id="guide4"
     inkscape:locked="true" /><sodipodi:guide
     position="1010.1055,101.5"
     orientation="0,-1"
     id="guide5"
     inkscape:locked="true" /><sodipodi:guide
     position="1220.1953,887.74609"
     orientation="1,0"
     id="guide6"
     inkscape:locked="true" /><sodipodi:guide
     position="344.59375,1119"
     orientation="1,0"
     id="guide7"
     inkscape:locked="true" /><sodipodi:guide
     position="644.78516,240.69922"
     orientation="0,-1"
     id="guide8"
     inkscape:locked="true" /><sodipodi:guide
     position="0,2000"
     orientation="-1,0"
     id="guide9"
     inkscape:locked="true"
     inkscape:label=""
     inkscape:color="rgb(0,0,255)" /><sodipodi:guide
     position="627.89453,1772.6016"
     orientation="0,-1"
     id="guide10"
     inkscape:locked="true" /><sodipodi:guide
     position="0,0.88603905"
     orientation="-1,0"
     id="guide11"
     inkscape:locked="true"
     inkscape:label=""
     inkscape:color="rgb(0,0,255)" /><sodipodi:guide
     position="344.79297,1006.6523"
     orientation="0,-1"
     id="guide12"
     inkscape:locked="true" /><sodipodi:guide
     position="0,2000"
     orientation="0,1"
     id="guide59033"
     inkscape:label=""
     inkscape:locked="true"
     inkscape:color="rgb(0,0,255)" /><sodipodi:guide
     position="1999.8047,1368.3594"
     orientation="1,0"
     id="guide59064"
     inkscape:locked="true" /><sodipodi:guide
     position="0,1750"
     orientation="0,1"
     id="guide59147"
     inkscape:label=""
     inkscape:locked="true"
     inkscape:color="rgb(0,0,255)" /><sodipodi:guide
     position="0,250"
     orientation="0,1"
     id="guide59430"
     inkscape:label=""
     inkscape:locked="true"
     inkscape:color="rgb(0,0,255)" /><sodipodi:guide
     position="250,2000"
     orientation="-1,0"
     id="guide59432"
     inkscape:label=""
     inkscape:locked="true"
     inkscape:color="rgb(0,0,255)" /><sodipodi:guide
     position="0,250"
     orientation="-1,0"
     id="guide59452"
     inkscape:label=""
     inkscape:locked="true"
     inkscape:color="rgb(0,0,255)" /><sodipodi:guide
     position="1750,2000"
     orientation="-1,0"
     id="guide59454"
     inkscape:label=""
     inkscape:locked="true"
     inkscape:color="rgb(0,0,255)" /></sodipodi:namedview>
<style
   type="text/css"
   id="style1">
	.st0{fill:#F8AA55;}
	.st1{fill:#F48907;}
	.st2{fill:#F7F5FB;}
</style>
<text
   xml:space="preserve"
   id="text1"
   style="text-align:start;writing-mode:lr-tb;direction:ltr;white-space:pre;shape-inside:url(#rect1);display:inline;fill:#a8b8f3"
   transform="translate(581.25,-393.276)" /><text
   xml:space="preserve"
   id="text2"
   style="font-size:2000px;text-align:start;writing-mode:lr-tb;direction:ltr;white-space:pre;shape-inside:url(#rect2);shape-padding:132;display:inline;fill:#a8b8f3"
   transform="translate(581.25,-393.276)"><tspan
     x="1711.1992"
     y="4774.9224"
     id="tspan979"><tspan
       style="font-size:1333.33px;font-family:'Baloo Bhai 2';-inkscape-font-specification:'Baloo Bhai 2, '"
       id="tspan977">T</tspan></tspan></text><text
   xml:space="preserve"
   id="text3"
   style="font-style:normal;font-variant:normal;font-weight:normal;font-stretch:normal;font-size:1133.33px;font-family:'Baloo Bhai 2';-inkscape-font-specification:'Baloo Bhai 2, ';text-align:start;writing-mode:lr-tb;direction:ltr;white-space:pre;shape-inside:url(#rect3);shape-padding:312;display:inline;fill:#a8b8f3"
   transform="matrix(1.0036784,0,0,1.0036784,-2057.7096,-2549.9893)"><tspan
     x="2680"
     y="5140.2136"
     id="tspan983"><tspan
       style="fill:#39853b"
       id="tspan981">T</tspan></tspan></text><g
   aria-label="T L F"
   id="text2056-3"
   style="font-size:13333.3px;line-height:1.25"
   transform="translate(-770.7874,-10031.918)" /><g
   aria-label="T L F"
   id="text2056-1"
   style="font-size:13333.3px;line-height:1.25"
   transform="translate(32209.826,-12235.902)" /><text
   xml:space="preserve"
   id="text52710"
   style="font-style:normal;font-weight:normal;font-size:40px;line-height:1.25;font-family:sans-serif;white-space:pre;shape-inside:url(#rect52712);fill:#000000;fill-opacity:1;stroke:none"
   transform="translate(581.25,-393.276)" /><g
   aria-label="T L F"
   id="text2056-6"
   style="font-size:13333.3px;line-height:1.25"
   transform="translate(63221.391,-11264.656)"><path
     d="m 23206.481,-4808.6132 q 0,-573.3319 333.332,-906.6644 333.333,-333.3325 906.665,-333.3325 h 4439.988 q 93.333,146.6663 160,386.6657 80,239.9994 80,519.9987 0,506.6654 -226.666,733.3315 -213.333,226.6661 -586.666,226.6661 h -2799.992 v 1506.6629 h 2919.992 q 93.333,146.6663 173.333,386.6657 80,226.6661 80,506.6654 0,506.6654 -226.666,733.3315 -213.333,213.33277 -586.665,213.33277 H 25539.808 V 2018.0363 q -146.666,39.9999 -453.332,79.9998 -306.666,39.9999 -626.665,39.9999 -706.665,0 -986.664,-239.9994 -266.666,-239.9994 -266.666,-866.6645 z"
     style="font-weight:800;font-family:'Baloo Bhai 2';-inkscape-font-specification:'Baloo Bhai 2 Ultra-Bold'"
     id="path55890-6" /></g><path
   id="path1"
   style="fill:#072007;fill-opacity:1;stroke-width:0.829624;opacity:1"
   class="st1"
   d="M 511.5 250 C 483.87353 250 465.62326 267.83761 464.21289 295.87891 C 462.38772 331.38681 453.0117 365.06815 433.34961 395.01758 C 418.83118 417.00261 397.84246 431.52204 375.85742 445.04492 C 354.78497 458.15298 331.88751 466.03395 306.58398 465.61914 C 293.9737 465.61914 281.36372 468.44012 269.66602 474.99414 C 259.79349 480.63559 253.73722 489.01539 250.00391 499.30273 L 250.00391 1474.0273 C 250.99946 1478.6732 251.91191 1483.3182 253.32227 1488.0469 C 259.79333 1510.4469 277.13168 1523.5566 300.0293 1523.5566 C 326.24542 1523.5566 350.96816 1527.7031 374.86133 1538.4883 C 413.68774 1556.2422 437.99646 1587.1885 452.92969 1626.4297 C 460.3963 1645.5941 464.54351 1665.7527 465.53906 1686.7422 C 466.94942 1718.0189 487.5245 1739.0926 519.79688 1744.2363 C 521.20724 1744.6512 523.11504 1744.651 524.52539 1745.6465 L 1098.1055 1750 C 1098.1055 1749.9275 1098.1035 1749.7835 1098.1035 1749.7109 C 1154.0009 1750.3833 1260.5081 1745.064 1294.5234 1738.6523 L 1334.4141 1731.1328 L 1334.4141 1159.7598 L 1334.4141 588.38672 L 1489.1973 588.24414 C 1663.4271 588.08345 1677.2565 585.18028 1715.5703 540.73633 C 1740.8078 511.46093 1750.0039 478.18308 1750.0039 416.11719 C 1750.0039 364.63827 1742.954 330.2649 1722.3066 281.05273 L 1709.2793 250 L 1162.8164 251.79883 C 1133.5789 251.89507 1122.403 252.00026 1096.0742 252.08203 C 1096.0738 251.6982 1096.0586 250.36497 1096.0586 250 L 578.36914 250 L 511.5 250 z M 516.30469 477.27344 C 520.28411 503.61325 527.25265 530.09956 537.48633 555.17969 L 551.03711 588.38672 L 735.10352 588.38672 L 919.16992 588.38672 L 920.94727 1110.0723 C 922.19208 1475.3766 922.96423 1586.4066 927.84766 1630.1621 L 588.24023 1630.1621 C 579.36326 1630.1621 579.36397 1630.1634 577.04102 1621.7012 C 561.11224 1566.5312 533.48624 1518.7446 490.51172 1480.416 C 457.74158 1451.3791 420.40858 1431.3007 378.26367 1420.5156 C 373.12001 1419.5201 371.21094 1417.1985 371.21094 1412.0547 L 371.21094 574.88086 C 371.21094 569.73719 372.62196 567.41427 377.76562 566.00391 C 418.41719 553.47659 455.41708 534.22879 487.68945 506.1875 C 498.1187 497.19677 507.59232 487.50988 516.30469 477.27344 z " />
</svg>
