<?xml version="1.0" encoding="UTF-8" standalone="no"?>
<svg
   viewBox="0 0 320 512"
   version="1.1"
   id="svg1"
   sodipodi:docname="mobile-alt.svg"
   inkscape:version="1.4 (86a8ad7, 2024-10-11)"
   xmlns:inkscape="http://www.inkscape.org/namespaces/inkscape"
   xmlns:sodipodi="http://sodipodi.sourceforge.net/DTD/sodipodi-0.dtd"
   xmlns="http://www.w3.org/2000/svg"
   xmlns:svg="http://www.w3.org/2000/svg">
  <defs
     id="defs1" />
  <sodipodi:namedview
     id="namedview1"
     pagecolor="#ffffff"
     bordercolor="#000000"
     borderopacity="0.25"
     inkscape:showpageshadow="2"
     inkscape:pageopacity="0.0"
     inkscape:pagecheckerboard="0"
     inkscape:deskcolor="#d1d1d1"
     inkscape:zoom="2.1015625"
     inkscape:cx="159.88104"
     inkscape:cy="256"
     inkscape:window-width="2560"
     inkscape:window-height="1334"
     inkscape:window-x="3829"
     inkscape:window-y="720"
     inkscape:window-maximized="1"
     inkscape:current-layer="svg1" />
  <path
     d="M 272,0 H 48 C 21.5,0 0,21.5 0,48 v 416 c 0,26.5 21.5,48 48,48 h 224 c 26.5,0 48,-21.5 48,-48 V 48 C 320,21.5 298.5,0 272,0 Z M 160,480 c -17.7,0 -32,-14.3 -32,-32 0,-17.7 14.3,-32 32,-32 17.7,0 32,14.3 32,32 0,17.7 -14.3,32 -32,32 z M 272,372 c 0,6.6 -5.4,12 -12,12 H 60 c -6.6,0 -12,-5.4 -12,-12 V 60 c 0,-6.6 5.4,-12 12,-12 h 200 c 6.6,0 12,5.4 12,12 z"
     id="path1"
     sodipodi:nodetypes="sssssssssssssssssssssss"
     style="fill:#ff0000;fill-opacity:1" />
</svg>
