<?xml version="1.0" encoding="UTF-8"?>
<svg id="signature" xmlns="http://www.w3.org/2000/svg" viewBox="0 0 903.95 88.72">
  <defs>
    <style>
      .cls-1 {
        fill: #3d6262;
        stroke-width: 0px;
      }
    </style>
  </defs>
  <g id="primary-medium">
    <path class="cls-1" d="M483.38,88.62c-.28-.11-.55-.24-.83-.34-2.93-.97-4.4-2.88-4.6-6-.15-2.3.2-4.56.64-6.8,1.37-6.94,3.51-13.66,5.8-20.35,3.99-11.69,7.94-23.39,11.9-35.09.29-.85.64-1.7.79-2.59.34-1.92-.47-2.63-2.31-2.07-.78.24-1.53.58-2.26.94-8.68,4.29-17.35,8.61-26.05,12.87-3.25,1.59-5.43-.24-6.76-2.59-.6-1.06-.13-2.1,1.07-2.98,1.01-.73,2.02-1.46,3.02-2.21,8.84-6.65,18.53-11.74,28.82-15.71,4.42-1.71,8.93-3.13,13.51-4.33,1.63-.43,3.28-.68,4.98-.42,2.5.38,3.8,1.88,3.78,4.41,0,.34-.06.69-.07,1.03-.03.96.35,1.52,1.3,1.58.85.05,1.73,0,2.56-.18,5.47-1.2,10.87-.86,16.2.72,1.38.41,2.73,1.07,3.97,1.83,3.25,2,4.95,5.01,5.04,8.8.15,6.92-2.34,12.78-7.43,17.5-.16.15-.33.28-.49.43-.76.72-.88,1.43-.26,2.28.37.51.87.94,1.35,1.38,6.75,6.12,11.73,13.39,14.17,22.24.54,1.94.81,3.96,1.13,5.95.36,2.23,1.69,3.22,3.91,2.79,1.81-.35,3.4-1.2,4.94-2.16,9.13-5.71,18.53-10.95,28.23-15.64,8.69-4.2,17.55-7.98,26.86-10.61,4.53-1.28,9.16-2.25,13.85-2.68,4.24-.39,9.04-.68,13,1.13.89.41,1.74.92,2.67,1.21,1.74.54,3.58.24,5.37.18s3.43.01,5.15-.15c6.64-.61,13.27-1.41,19.89-2.19,4.23-.5,8.44-1.17,12.68-1.65,6.04-.67,12.11-1.06,18.18-.6,2.68.2,7.37.64,8.85,3.34.43.79.43,1.75.19,2.61-.54,1.93-1.89,3.68-3.12,5.22-1.91,2.4-3.69,4.88-5.11,7.6-.68,1.31-1.16,2.67-1.23,4.17-.08,1.72.6,2.31,2.27,1.81.7-.21,1.37-.51,2.01-.85,4.97-2.66,9.92-5.35,14.89-8.01,4.78-2.56,9.61-5.03,14.36-7.66,5.41-2.99,11.13-5.23,16.95-7.26,5.25-1.83,10.57-3.4,16.08-4.25,3.2-.49,6.42-.73,9.64-.15.42.08.85.17,1.24.35,1.17.53,1.72,1.64,1.37,2.87-.32,1.14-.89,2.14-1.88,2.86-1.69,1.23-3.53,2.1-5.6,2.53-7.92,1.66-15.51,4.26-22.6,8.2-3.63,2.02-6.95,4.45-9.81,7.51-.88.95-1.13,1.99-1.03,3.19.2,2.38,1.4,4.12,3.47,5.27,1.84,1.03,3.86,1.44,5.94,1.6,3.94.3,7.83-.12,11.7-.79,9.66-1.66,19.07-4.23,28.13-7.99,2.26-.94,4.48-2,6.66-3.11,1.73-.88,3.29-2.05,4.63-3.47,2.49-2.65,2.37-6.56,3.34-9.85.63-2.16,1.34-4.3,2.13-6.4,1.56-4.18,3.42-8.24,5.63-12.12s4.84-7.71,7.75-11.21c2.19-2.63,4.62-5.07,7.25-7.27s5.58-4.53,8.77-5.83c2.62-1.08,5.93-1.05,8.71-.7,3.3.41,6.35,2.05,7.95,5.05,1.88,3.53,1.73,8.18.59,11.91-.6,1.98-1.61,3.76-2.59,5.57-2.14,3.95-4.69,7.67-7.61,11.09-1.36,1.59-2.8,3.1-4.31,4.55-1.42,1.36-2.62,2.97-3.83,4.52-.82,1.05-.62,1.85.53,2.56.51.31,1.07.59,1.64.73,2.67.66,4.71,2.27,6.48,4.26,2.35,2.65,3.63,5.82,4.23,9.28.08.47.13.94.22,1.4.17.88.57,1.28,1.46,1.34.46.03.96.01,1.4-.12.91-.26,1.81-.55,2.67-.95,4.22-1.95,8.42-3.93,12.62-5.93,6.99-3.34,13.91-6.84,20.49-10.95,1.61-1,3.14-2.11,4.73-3.16,1.86-1.22,3.9-1.56,6.04-1.07,2.22.51,2.64,2.64,2.6,4.61-.01.73-.05,1.48-.27,2.18-.53,1.65-2.5,2.84-3.84,3.8-1.72,1.24-3.56,2.32-5.45,3.29-4.71,2.42-9.45,4.78-14.19,7.13-9.41,4.66-18.84,9.28-28.25,13.95-1.6.79-3.26,1.08-5.01.96-2.35-.16-4.06-1.31-5.05-3.46-.64-1.39-.87-2.87-.88-4.4-.02-2.55-.26-5.07-.94-7.54-.45-1.63-1.06-3.19-2.08-4.56-1.56-2.11-3.64-3.02-6.26-2.93-2.77.09-5.2,1.06-7.46,2.58-2.92,1.97-5.37,4.45-7.54,7.2-3.27,4.13-6.09,8.54-8.35,13.32-.89,1.9-2.02,3.71-3.22,5.43-.7,1-1.7,1.82-2.67,2.59-2.58,2.05-7.62-.53-7.63-3.92,0-.73.02-1.48.22-2.17.42-1.49.81-2.99,1.35-4.44.26-.72.54-1.48.91-2.15.34-.63.81-1.17,1.01-1.88.29-.98.03-2.42-1.27-2.16-.46.09-.92.26-1.33.49-5.41,3.05-11.22,5.03-17.19,6.6-9.85,2.6-19.77,3.34-29.92,3.17-1.81-.03-3.64-.11-5.42-.46-5.55-1.11-9.26-6.96-10.1-12.22-.09-.55-.21-1.11-.43-1.61-.55-1.21-1.59-1.71-2.87-1.35-.65.18-1.31.46-1.88.82-.87.56-1.69,1.19-2.48,1.85-5.04,4.2-10.37,7.99-16.23,10.98-1.84.94-3.76,1.7-5.67,2.49-2.09.88-4.14.61-6.12-.37-1.4-.7-2.67-1.56-3.53-2.93-.29-.46-.71-.87-1.13-1.23-1.29-1.09-2.48-1.16-3.91-.29-5.88,3.55-12.19,6-18.93,7.32-4.3.84-8.65.99-12.99.43-4.82-.63-7.55-3.7-7.57-8.57,0-1.7.24-3.45.67-5.1,1.26-4.86,3.19-9.46,6.03-13.63.46-.67,1-1.41.56-2.26-.45-.88-1.37-.78-2.18-.76-3.4.08-6.8.2-10.2.26-1.9.03-3.56.61-4.81,2.07-1.86,2.17-2.42,5.01-3.68,7.51-1.5,2.99-3.6,5.51-5.82,7.97-2.98,3.3-6.34,6.27-10.05,8.72-.49.32-.99.64-1.49.94-4.22,2.57-8.86,3.97-13.69,4.77-2.13.35-4.3.27-6.42-.26-5.01-1.26-8.26-4.46-9.91-9.28-.76-2.2-1.15-4.52-1-6.85.03-.47.06-.99-.23-1.35-.29-.35-.81-.42-1.27-.38-1.97.17-3.74,1.58-5.3,2.67-1.8,1.25-3.6,2.5-5.4,3.75-3.51,2.44-7.03,4.87-10.57,7.27-3.53,2.39-7.26,4.45-11.25,6.02-2.05.81-4,.69-5.73-.67-2.13-1.67-3.56-3.86-4.08-6.54-1.24-6.41-3.03-12.64-5.94-18.5-1.74-3.49-3.84-6.73-6.64-9.48-2.94-2.88-6.39-4.82-10.48-5.45-2.96-.46-5.93-.25-8.88.24-3.54.58-6.94,1.64-10.31,2.84-1.12.4-1.89,1.06-2.28,2.11-.67,1.81-1.32,3.64-1.83,5.5-1.24,4.56-2.37,9.16-3.6,13.73-1.22,4.53-2.59,9.02-3.73,13.57-.69,2.73-1.9,4.86-4.69,5.82h-1.81ZM850.02,11.46c-.03-1.16-.26-2.3-.83-3.33s-1.57-1.87-2.73-2c-.86-.1-1.73.2-2.5.6-1.33.67-2.5,1.62-3.61,2.61-3.31,2.97-5.9,6.46-8.42,10.1-2.6,3.76-5.07,7.63-6.99,11.79-1.23,2.66-2.25,5.4-2.56,8.35-.07.71-.03,1.47.14,2.16.3,1.27,1.16,1.72,2.33,1.16.84-.4,1.64-.95,2.34-1.57,2.71-2.39,5.41-4.79,8.06-7.25,3.94-3.66,7.73-7.46,11.13-11.66,1.53-1.9,2.52-4.13,3.06-6.5.32-1.41.62-2.95.58-4.45ZM664.16,69.72c.11,0,.22-.01.32-.02,5.97-.35,11.84-2.13,17-5.16,3.14-1.84,5.99-4.12,8.67-6.57,2.43-2.22,5.48-4.66,7.09-7.57.22-.4.42-.87.27-1.31-.42-1.16-2.45-.99-3.4-.93-5.1.28-9.95,1.17-14.64,3.25-4.74,2.09-9.09,5.01-13,8.4-2.21,1.91-4.37,4.08-5.31,6.85-.17.49-.29,1.01-.17,1.51.17.67.78,1.17,1.44,1.38.56.18,1.15.2,1.74.17ZM509.76,35.31c2.95,0,6.37-.64,7.2-.75,3.3-.43,6.49-1.31,9.49-2.81,1.96-.98,3.64-2.31,4.9-4.11,1.6-2.29,1.78-4.72.45-7.18-.44-.83-1.06-1.56-1.62-2.32-.79-1.06-1.91-1.62-3.18-1.81-.97-.15-1.97-.21-2.95-.13-2.42.18-4.58,1.18-6.58,2.48-4.45,2.91-8.25,6.85-11.09,11.38-.47.76-.84,1.6-1.1,2.46-.66,2.2,1.7,2.8,4.5,2.8ZM597.99,66.35c-.05,1.19.15,2.42.94,3.29,1,1.11,2.64,1.33,4.12,1.32,4.47,0,8.9-1.38,12.76-3.65,3.86-2.26,7.17-5.39,9.93-8.92,1.44-1.85,2.77-3.9,3.11-6.22.05-.37.05-.81-.25-1.03-.25-.18-.61-.12-.91-.04-9.04,2.21-18.46,4.61-26.47,9.53-1.9,1.17-2.99,3.06-3.19,5.26-.01.14-.02.29-.03.44Z"/>
    <path class="cls-1" d="M84.31,1.7c2.86,1.07,4.01,2.79,4.11,6.24.07,2.39-.37,4.71-.89,7.03-.96,4.25-2.42,8.35-4.17,12.33-4.16,9.47-8.85,18.68-14.56,27.32-1.71,2.58-3.58,5.06-5.41,7.56-1.74,2.38-3.83,4.43-6.18,6.2-1.82,1.37-3.65,2.75-5.47,4.12-.34.26-.71.49-1.04.76-.79.65-.69,1.22.29,1.57.48.17,1.01.29,1.51.29,2.11,0,4.22.03,6.32-.09,5.98-.34,11.92-1.07,17.75-2.5,1.88-.46,3.72-1.07,5.6-1.55,1.04-.26,1.82-.85,2.29-1.75.94-1.79,1.88-3.58,2.64-5.45,2.63-6.5,7.14-11.31,13.16-14.72,3.85-2.18,7.98-2.58,12.22-1.12.45.15.89.33,1.32.52,4.69,2.08,5.08,6.72,3.26,9.91-1.17,2.05-2.71,3.77-4.44,5.34-2.23,2.04-4.7,3.77-7.24,5.4-2.37,1.51-4.61,3.18-6.6,5.17-.6.6-1.15,1.29-1.58,2.03-.59,1.02-.22,1.82.95,1.96.87.1,1.8-.03,2.67-.21,3.31-.66,6.43-1.91,9.46-3.36,3.98-1.89,7.74-4.16,11.37-6.62,10.19-6.92,20.21-14.09,30.03-21.52.68-.51,1.42-.99,2.21-1.31,2.07-.84,3.72-.18,4.75,1.81.72,1.4,1.01,2.93,1.14,4.48.1,1.24.15,2.5.13,3.74-.02.96.41,1.59,1.25,1.89.8.29,1.65.51,2.49.61,2.54.31,5.09.15,7.6-.27,3.6-.61,7.2-1.29,10.76-2.09,1.32-.3,2.57-.96,3.8-1.57.55-.27,1.07-.76,1.44-1.26.77-1.06.32-2.46-.95-2.78-1.11-.28-2.29-.41-3.44-.4-1.68,0-3.36.13-5.03.3-1.52.15-2.92-.16-4.24-.84-1.53-.78-1.92-2.02-1.17-3.57.63-1.3,1.51-2.38,2.83-3.09,3.61-1.93,7.45-2.59,11.5-2.11,2.01.24,4.01.52,6.04.16,2.8-.5,4.96-1.77,6.21-4.47.48-1.03,1.27-1.95,2.06-2.78,1.66-1.75,3.72-2.05,5.94-1.27,1.66.58,2.8,1.78,2.7,3.55-.13,2.39,1.6,2.93,3.39,2.74,2.01-.21,4.02-.45,6.02-.81,3.35-.59,6.67-1.28,10.01-1.93.46-.09.94-.2,1.4-.17,1.12.07,1.7.8,1.57,1.92-.15,1.23-.77,2.25-1.83,2.83-1.04.57-2.17,1.05-3.32,1.34-5.26,1.33-10.48,2.8-15.56,4.69-1.77.66-3.5,1.43-5.26,2.13-1.07.43-1.98,1.09-2.61,2.04-1.16,1.76-2.36,3.5-3.36,5.35-2.21,4.1-3.9,8.44-5.48,12.81-.41,1.13-.75,2.28-1.11,3.43-.09.28-.12.6-.11.89.03,1.11.6,1.57,1.69,1.31.62-.15,1.22-.43,1.79-.71,15.67-7.83,31.34-15.66,47.01-23.5,1.08-.54,2.11-1.17,3.21-1.65,1.1-.48,2.23-.94,3.39-1.18,1.73-.36,3.03.47,3.35,2.2.23,1.25.31,2.6.09,3.83-.87,4.74-1.89,9.45-2.83,14.18-.13.67-.26,1.37-.21,2.04.07.93.58,1.31,1.5,1.15.58-.1,1.16-.33,1.68-.61,12.17-6.55,24.33-13.1,36.48-19.69,1.13-.61,2.26-.78,3.48-.66,1.71.16,2.75,1.12,3.09,2.8.25,1.22.02,2.41-.29,3.57-.38,1.41-.88,2.79-1.23,4.21-.56,2.27-.9,4.57-.5,6.91.61,3.61,2.71,5.51,6.38,5.77,2.95.2,5.73-.49,8.39-1.71,3.74-1.72,6.9-4.24,9.61-7.29,4.77-5.35,8.53-11.34,11.07-18.07.11-.28.21-.57.36-.83,1.89-3.31,4.78-3.87,7.81-1.23,1.01.88,1.4,2.08,1.28,3.38-.07.8-.28,1.62-.57,2.37-1.54,4.02-3.12,8.02-4.69,12.03-.39,1-.77,2.01-1.14,3.02-.12.32-.25.64-.33.98-.28,1.25.26,1.96,1.53,1.9.72-.04,1.47-.17,2.13-.45,1.71-.71,3.42-1.42,5.05-2.3,6.15-3.32,11.96-7.17,17.59-11.3,3.6-2.65,7.51-4.71,11.82-5.95,3.19-.92,6.41-1.24,9.69-.4,1.91.49,3.44,1.47,4.63,3.06,2.22,2.96,3.31,6.31,3.55,9.95.15,2.28.03,4.55-.42,6.81-.21,1.04-.24,2.15-.11,3.2.16,1.29.98,1.7,2.25,1.33.33-.09.65-.22.96-.36,10.33-4.78,19.86-10.87,28.88-17.75,4.14-3.16,8.16-6.48,12.22-9.75,2.05-1.65,4.15-3.23,6.54-4.36.65-.31,1.37-.57,2.07-.64,1.5-.14,2.65.71,2.88,2.18.29,1.86.27,3.75-1.03,5.29-1.5,1.77-2.99,3.58-4.7,5.13-8.66,7.86-17.88,14.99-27.93,21.02-8.3,4.98-17.02,9.05-26.35,11.71-6.63,1.88-13.37,2.92-20.29,2.46-4.83-.32-9.42-1.49-13.66-3.91-2.28-1.3-3.79-3.2-4.54-5.72-.53-1.8-1.32-2.4-3.18-2.31-.76.04-1.57.15-2.26.46-1.41.63-2.81,1.31-4.1,2.16-3.37,2.23-6.96,3.93-10.86,5.01-.67.18-1.26.16-1.88-.08-1.77-.7-3.04-1.9-3.82-3.64-.7-1.59-1.52-1.83-3.02-.88-.54.34-1.01.82-1.56,1.14-4.91,2.8-10.15,4.21-15.83,3.69-.47-.04-.94-.14-1.39-.28-3.38-1.01-6.49-2.54-9.15-4.89-2.47-2.19-4.09-4.86-4.53-8.18-.09-.68-.03-1.37-.07-2.06-.09-1.98-1.1-2.59-2.93-1.78-.39.17-.77.38-1.13.62-6.86,4.55-14.06,8.53-21.31,12.41-4.02,2.15-8.17,4.06-12.28,6.04-.77.37-1.6.65-2.44.83-2.36.49-4.06-.58-4.72-2.89-.5-1.74-.39-3.51-.19-5.26.42-3.68.89-7.35,1.39-11.02.1-.75.39-1.48.61-2.22.07-.25.2-.48.25-.73.24-1.05-.14-1.5-1.19-1.36-.51.07-1.02.21-1.48.42-.94.42-1.86.89-2.77,1.38-13.61,7.42-27.3,14.67-41.29,21.36-2.33,1.11-4.68,2.18-7.06,3.19-2.56,1.09-4.92.2-6.25-2.23-.52-.95-.63-2-.5-3.01.22-1.61.49-3.24.94-4.8.93-3.22,2.01-6.4,3.01-9.61.16-.53.29-1.09.31-1.64.04-1.22-.56-1.88-1.79-1.84-.8.03-1.63.2-2.39.46-3.29,1.11-6.65,1.73-10.12,1.9-3.91.19-7.74-.21-11.5-1.28-.12-.04-.25-.07-.37-.11-3.52-1.19-5.74.63-6.84,3.3-.72,1.73-.92,3.57-1.11,5.42-.37,3.49-1.22,6.86-2.84,10-1.04,2.03-2.59,3.53-4.74,4.35-.77.29-1.55.49-2.39.28-1.82-.46-2.97-1.82-2.98-3.72,0-.81.11-1.64.34-2.41,1.29-4.42,2.61-8.83,3.95-13.23.31-1.03.75-2.02,1.07-3.04.16-.52.46-1.21-.1-1.54-.32-.19-1.01,0-1.42.23-.79.43-1.54.95-2.24,1.52-7.19,5.73-14.68,11-22.81,15.31-3.5,1.86-7.09,3.55-10.94,4.56-5.13,1.35-10.16.9-15.03-1.18-1.52-.65-2.89-1.57-3.99-2.8-1.63-1.83-3.66-2.09-5.9-1.7-.38.07-.77.17-1.11.33-3.02,1.42-6.3,1.68-9.52,2.17-4.91.75-9.86.94-14.81,1.01-9.6.13-19.21.3-28.81.25-4.95-.02-9.89-.41-14.83-.76-2.55-.18-4.97-1.01-7.2-2.31-1.35-.79-2.55-1.77-3.48-3.04-1.12-1.53-.78-3.7.79-4.8,1.64-1.15,3.46-1.23,5.32-.77,1.62.41,3.2,1,4.83,1.38,13.48,3.1,25.3-.33,35.69-9.2,4.23-3.61,7.68-7.9,10.46-12.71,3.07-5.33,6.13-10.68,9.14-16.05,1.33-2.36,2.62-4.76,3.78-7.2.94-1.98,1.68-4.05,2.47-6.09.23-.59.54-1.3-.07-1.81-.59-.5-1.22-.11-1.79.22-2.88,1.64-6.06,2.46-9.25,3.17-4.73,1.05-9.51,1.49-14.37,1.13-5.52-.4-10.81-1.67-15.74-4.19-4.81-2.46-9.6-2.38-14.44-.29-1.22.53-2.41,1.17-3.5,1.93-1.18.81-2.41.85-3.7.59-3.1-.62-6.02-5.6-4.88-8.6.59-1.55,1.55-2.77,2.87-3.72,2.1-1.51,4.46-2.41,7-2.82,6.19-1.02,12.2-.13,18.03,1.99,4.21,1.54,8.44,2.98,12.85,3.84,4.93.96,9.89,1.41,14.9.63,3.1-.49,5.97-1.55,8.6-3.31,3.42-2.28,6.5-4.97,9.49-7.76,1.05-.98,2.05-1.95,3.56-2.12h.78ZM365.74,75.55c1.22-.04,2.44-.15,3.64-.3,2.11-.27,4.26-.69,6.04-1.85,1.57-1.03,2.75-2.58,3.52-4.29s1.14-3.58,1.31-5.45c.25-2.76-.06-7.26-3.63-7.63-.84-.09-1.69.05-2.5.23-6.99,1.6-13.24,5.46-19.13,9.56-.96.67-1.93,1.35-2.79,2.15-.44.41-.88.91-.87,1.51.01.5.34.93.68,1.3,2.09,2.3,5.04,3.71,8.08,4.34,1.85.38,3.75.49,5.64.43ZM107.77,55.68c.07-.39.03-.78-.22-1.12-.37-.51-1.11-.35-1.62-.19-.98.31-1.87.88-2.73,1.44-1.16.74-2.25,1.6-3.27,2.52-2.07,1.86-3.88,4.01-5.55,6.23-.24.32-.49.67-.48,1.06.01.63.69,1.07,1.32,1.06s1.19-.35,1.71-.7c2.69-1.78,5.09-3.95,7.47-6.12.87-.79,1.74-1.57,2.48-2.47.35-.42.77-1.07.88-1.71Z"/>
    <path class="cls-1" d="M249.42,36.67s0-.07,0-.11c.02-.58.06-1.17.13-1.75.03-.23.06-.46.17-.67.45-.83,2.11-.76,2.92-.84,1.23-.12,2.53-.11,3.67.44.49.24.94.59,1.21,1.06.33.58.35,1.29.29,1.95-.16,1.69-.87,3.39-2.22,4.41s-3.41,1.17-4.71.08c-.65-.55-1.06-1.34-1.26-2.17s-.22-1.61-.19-2.42Z"/>
  </g>
</svg>