<?xml version="1.0" encoding="UTF-8" standalone="no"?>
<!-- Created with Inkscape (http://www.inkscape.org/) -->

<svg
   version="1.1"
   id="svg1"
   width="2000"
   height="2000"
   viewBox="0 0 2000 2000"
   sodipodi:docname="find-link-dark.svg"
   inkscape:version="1.4 (86a8ad7, 2024-10-11)"
   xmlns:inkscape="http://www.inkscape.org/namespaces/inkscape"
   xmlns:sodipodi="http://sodipodi.sourceforge.net/DTD/sodipodi-0.dtd"
   xmlns="http://www.w3.org/2000/svg"
   xmlns:svg="http://www.w3.org/2000/svg">
  <defs
     id="defs1" />
  <sodipodi:namedview
     id="namedview1"
     pagecolor="#ffffff"
     bordercolor="#000000"
     borderopacity="0.25"
     inkscape:showpageshadow="2"
     inkscape:pageopacity="0.0"
     inkscape:pagecheckerboard="0"
     inkscape:deskcolor="#d1d1d1"
     inkscape:zoom="0.5475"
     inkscape:cx="1072.1461"
     inkscape:cy="1050.2283"
     inkscape:window-width="2560"
     inkscape:window-height="1334"
     inkscape:window-x="3829"
     inkscape:window-y="720"
     inkscape:window-maximized="1"
     inkscape:current-layer="g1" />
  <g
     inkscape:groupmode="layer"
     inkscape:label="Image"
     id="g1">
    <path
       style="fill:#230709;fill-opacity:1"
       d="m 871,1749.7558 c -0.275,-0.2803 -77.45,-1.2631 -171.5,-2.1839 -184.78621,-1.8092 -176.47355,-1.498 -193.5,-7.2454 -12.02146,-4.058 -20.44663,-9.8529 -28.12547,-19.3449 -7.69235,-9.5088 -10.44589,-17.9239 -12.39647,-37.885 -2.78643,-28.5147 -8.30268,-49.3388 -19.07876,-72.0232 -20.76699,-43.7159 -54.3337,-71.2599 -100.3993,-82.3851 -12.32153,-2.9757 -23.4128,-4.3672 -42,-5.2691 -15.87231,-0.7702 -23.21612,-2.7084 -31.64993,-8.3532 -9.84413,-6.5888 -15.72591,-15.8595 -19.86574,-31.3118 l -2.47929,-9.2542 -0.003,-487.77852 -0.003,-487.77851 2.88988,-5.72149 c 5.8169,-11.5165 15.45012,-19.01733 30.61012,-23.83433 6.29467,-2.00009 11.46065,-2.74085 24.23457,-3.47506 24.30724,-1.39709 37.7967,-4.76365 55.7857,-13.92241 11.09883,-5.65076 29.58163,-17.59601 40.97973,-26.48479 34.55932,-26.95101 54.84111,-69.45421 59.49537,-124.68051 0.58754,-6.97159 1.77912,-15.07159 2.64796,-18 5.13935,-17.32204 16.42987,-27.86218 33.7039,-31.46392 6.45136,-1.34515 10.34246,-1.28197 42.6261,0.69202 35.44234,2.16714 36.22336,2.17103 329.02667,1.63527 161.425,-0.29537 370.225,-0.99358 464,-1.55159 93.775,-0.558 216.007,-1.28703 271.6266,-1.62006 l 101.1266,-0.60551 8.5145,19.29471 c 22.3488,50.64476 32.0478,96.68376 32.084,152.2947 0.034,53.19396 -8.9601,86.81679 -31.1088,116.28795 -5.6724,7.54779 -20.388,21.77579 -28.8767,27.91996 -11.6055,8.40004 -26.6582,13.76756 -46.8662,16.71157 -34.2783,4.99385 -65.6176,5.60331 -321.75,6.25711 L 1087,589.27326 v 142.86155 142.86154 l 270.1815,0.25183 270.1814,0.25182 7.8743,17 c 10.2887,22.21273 16.8031,38.58386 21.1851,53.23996 24.482,81.88324 15.9456,166.34554 -21.4907,212.63784 -11.8235,14.6204 -30.2065,28.4135 -46.9007,35.1903 -20.8543,8.4656 -49.9147,9.746 -258.5309,11.3907 -69.3,0.5464 -150.8625,1.2829 -181.25,1.6367 l -55.25,0.6433 v 262.3806 c 0,144.3093 -0.3599,262.3806 -0.7997,262.3806 -0.4398,0 -11.8023,2.0029 -25.25,4.451 -35.8172,6.5202 -58.7106,9.089 -102.9503,11.552 -21.18346,1.1794 -92.24848,2.5187 -93,1.7528 z M 680.64253,1622.75 c -5.82077,-66.6324 -6.58272,-152.136 -6.61601,-742.42865 L 674,410.1427 l 8.06506,-17.82135 c 4.43578,-9.80174 9.83578,-21.1184 12,-25.14813 C 696.22928,363.14348 698,359.65598 698,359.42322 698,359.19045 670.37485,359 636.61078,359 c -57.04986,0 -61.52826,0.1237 -63.35636,1.75 -1.28602,1.14407 -2.56756,4.69311 -3.70121,10.25 -0.95374,4.675 -3.9044,15.10122 -6.55701,23.16937 -11.49259,34.95574 -30.99119,67.10251 -57.3007,94.46997 -33.13425,34.46663 -73.19985,59.20848 -121.94688,75.30629 -6.26914,2.07027 -10.28654,3.98426 -11.25,5.3598 C 371.17287,571.1982 371,620.13437 371,993.53138 c 0,336.09772 0.25465,422.43192 1.25,423.78272 0.70497,0.9567 7.04907,3.4442 14.54981,5.7049 46.651,14.0601 86.26545,38.1922 119.1338,72.5731 30.91059,32.333 51.67258,67.785 67.29431,114.9079 3.28195,9.9 6.48579,18.3306 7.11963,18.7347 0.63385,0.4041 23.60202,0.7416 51.04038,0.75 l 49.88793,0.015 z"
       id="path1" />
  </g>
</svg>
