<?xml version="1.0" encoding="UTF-8" standalone="no"?>
<!-- Created with Inkscape (http://www.inkscape.org/) -->

<svg
   version="1.1"
   id="svg2"
   width="160"
   height="160"
   viewBox="0 0 160 160"
   sodipodi:docname="trinity-apps.svg"
   inkscape:version="1.1.1 (3bf5ae0d25, 2021-09-20)"
   xmlns:inkscape="http://www.inkscape.org/namespaces/inkscape"
   xmlns:sodipodi="http://sodipodi.sourceforge.net/DTD/sodipodi-0.dtd"
   xmlns="http://www.w3.org/2000/svg"
   xmlns:svg="http://www.w3.org/2000/svg">
  <defs
     id="defs6" />
  <sodipodi:namedview
     id="namedview4"
     pagecolor="#ffffff"
     bordercolor="#666666"
     borderopacity="1.0"
     inkscape:pageshadow="2"
     inkscape:pageopacity="0.0"
     inkscape:pagecheckerboard="0"
     showgrid="false"
     inkscape:zoom="0.70710678"
     inkscape:cx="-102.53048"
     inkscape:cy="-37.476659"
     inkscape:window-width="1920"
     inkscape:window-height="1017"
     inkscape:window-x="1912"
     inkscape:window-y="-8"
     inkscape:window-maximized="1"
     inkscape:current-layer="g8"
     inkscape:snap-global="true"
     inkscape:showpageshadow="2"
     inkscape:deskcolor="#d1d1d1" />
  <g
     inkscape:groupmode="layer"
     inkscape:label="Image"
     id="g8">
    <path
       id="text15306"
       style="font-style:normal;font-weight:normal;font-size:209.94px;line-height:1.25;font-family:sans-serif;fill:#ffff00;fill-opacity:1;stroke:none;stroke-width:1.09344"
       d="m 68.390625,13.173828 c -2.797953,0 -5.665661,0.208839 -8.603516,0.628906 -2.797952,0.420067 -4.966987,0.77073 -6.505859,1.050782 v 0.06055 h -9.681641 -5.783203 c -2.38918,0 -3.967833,1.541657 -4.089844,3.966797 -0.1578,3.07077 -0.969511,5.984149 -2.669921,8.574219 -1.25564,1.90135 -3.071297,3.156672 -4.972657,4.326172 -1.82243,1.13363 -3.801914,1.814997 -5.990234,1.779297 -1.09061,0 -2.181669,0.243767 -3.193359,0.810547 -0.85382,0.48791 -1.376409,1.213855 -1.699219,2.103515 v 84.296867 c 0.08608,0.4017 0.165169,0.804 0.287109,1.2129 0.55963,1.93719 2.058823,3.07031 4.039063,3.07031 2.26725,0 4.404313,0.35851 6.470703,1.29101 3.35781,1.5355 5.460453,4.21187 6.751953,7.60547 0.64572,1.6574 1.005797,3.4016 1.091797,5.2168 0.12201,2.705 1.900366,4.52776 4.691406,4.97265 0.12201,0.036 0.286263,0.0351 0.408203,0.1211 h 23.617188 c 2.348875,0.59563 5.207355,0.90039 8.597656,0.90039 3.077749,0 6.016499,-0.21079 8.814453,-0.63086 2.424735,0 3.866511,0.002 5.982427,0.002 6.951016,0 3.014469,-0.0917 14.89062,-0.17808 h 11.73242 c 3.63734,0 6.50505,-1.12097 8.60352,-3.36133 2.09846,-2.24036 3.14648,-5.67028 3.14648,-10.29102 0,-2.66042 -0.34934,-5.1112 -1.04883,-7.35156 -0.69948,-2.24035 -1.53829,-4.06071 -2.51757,-5.46094 H 86.89844 V 95.208984 h 39.24023 c 3.49744,0 6.29607,-1.050055 8.39453,-3.15039 2.09847,-2.240358 3.14844,-5.670279 3.14844,-10.291016 0,-2.800447 -0.42038,-5.251227 -1.25976,-7.351562 -0.69949,-2.100335 -1.46921,-3.920692 -2.3086,-5.460938 H 86.47852 V 42.904297 c 0.006,0.09787 0.0863,1.216136 0.16796,-1.462891 h 46.41797 c 3.63734,0 6.43597,-1.12097 8.39453,-3.361328 2.09847,-2.240357 3.14649,-5.670278 3.14649,-10.291016 0,-2.660424 -0.34934,-5.111205 -1.04883,-7.351562 -0.69949,-2.240357 -1.46921,-4.060714 -2.30859,-5.460938 H 79.666016 C 76.905564,13.775996 73.150234,13.173828 68.390625,13.173828 Z M 25.695312,42.875 H 53.28125 v 82.66602 c 0,0.35926 0.02503,0.70109 0.03906,1.05078 v 3.02734 c 0,1.71976 0.01175,1.80758 -0.169921,4.6543 h -0.410157 -8.287109 c -0.76773,0 -0.76787,0.001 -0.96875,-0.73047 -1.37759,-4.7712 -3.767805,-8.90405 -7.484375,-12.21875 -2.83404,-2.5112 -6.062181,-4.24894 -9.707031,-5.18164 -0.44483,-0.0861 -0.609375,-0.28567 -0.609375,-0.73047 V 43.009766 c 0,-0.0515 0.0081,-0.08955 0.01172,-0.134766 z"
       sodipodi:nodetypes="sccccsccccccccsccccccscccsssscccscscccccscssccsccsccccscccssc" />
    <g
       aria-label="L"
       transform="scale(0.99955479,1.0004454)"
       id="text15306-95"
       style="font-size:209.94px;line-height:1.25;stroke-width:1.09344" />
    <g
       aria-label="T"
       transform="matrix(0.99955479,0,0,1.0004454,0,0.82864074)"
       id="text15306-9"
       style="font-size:209.94px;line-height:1.25;stroke-width:1.09344" />
    <g
       aria-label="T"
       transform="matrix(0.99955479,0,0,1.0004454,0,0.5439283)"
       id="text15306-8"
       style="font-size:209.94px;line-height:1.25;stroke-width:1.09344" />
  </g>
  <style
     type="text/css"
     id="style25007">
	.st0{fill:#F8AA55;}
	.st1{fill:#F48907;}
	.st2{fill:#F7F5FB;}
</style>
</svg>
