<?xml version="1.0" encoding="UTF-8"?>
<svg id="Stacked" xmlns="http://www.w3.org/2000/svg" viewBox="0 0 826.44 320.93">
  <defs>
    <style>
      .cls-1 {
        fill: #9eb0b0;
        stroke-width: 0px;
      }
    </style>
  </defs>
  <g id="primary-light">
    <path class="cls-1" d="M45.89,320.89c-.52-.21-1.02-.45-1.55-.63-5.45-1.81-8.16-5.34-8.53-11.13-.27-4.27.36-8.45,1.18-12.62,2.54-12.88,6.52-25.36,10.76-37.77,7.4-21.7,14.73-43.42,22.08-65.13.54-1.59,1.18-3.16,1.47-4.8.63-3.56-.86-4.88-4.29-3.84-1.44.44-2.84,1.07-4.19,1.74-16.12,7.96-32.2,15.98-48.34,23.89-6.03,2.95-10.09-.44-12.55-4.8-1.11-1.96-.25-3.9,1.99-5.53,1.87-1.36,3.75-2.71,5.6-4.11,16.4-12.34,34.38-21.78,53.48-29.16,8.2-3.17,16.57-5.82,25.08-8.03,3.03-.79,6.1-1.26,9.25-.78,4.64.7,7.05,3.49,7.01,8.18,0,.64-.11,1.27-.13,1.91-.06,1.79.65,2.82,2.41,2.93,1.57.1,3.21,0,4.74-.34,10.15-2.23,20.18-1.6,30.06,1.33,2.57.76,5.07,1.99,7.36,3.39,6.03,3.71,9.19,9.29,9.35,16.33.28,12.85-4.34,23.72-13.8,32.48-.29.27-.61.52-.9.79-1.41,1.33-1.63,2.65-.48,4.23.69.95,1.62,1.75,2.51,2.55,12.52,11.37,21.76,24.85,26.3,41.27,1,3.6,1.5,7.35,2.09,11.05.67,4.14,3.13,5.97,7.25,5.18,3.36-.65,6.31-2.23,9.17-4.02,16.95-10.6,34.39-20.32,52.39-29.03,16.12-7.8,32.57-14.81,49.84-19.69,8.41-2.38,17-4.18,25.71-4.98,7.87-.73,16.77-1.27,24.13,2.09,1.65.75,3.22,1.71,4.96,2.25,3.23,1,6.65.44,9.96.34s6.36.02,9.57-.28c12.33-1.14,24.63-2.62,36.92-4.07,7.85-.93,15.67-2.18,23.52-3.06,11.21-1.25,22.47-1.96,33.75-1.11,4.98.38,13.67,1.18,16.43,6.19.8,1.46.8,3.25.35,4.85-1,3.58-3.51,6.83-5.79,9.68-3.54,4.45-6.84,9.05-9.48,14.11-1.27,2.43-2.16,4.96-2.29,7.75-.15,3.2,1.11,4.29,4.22,3.37,1.29-.38,2.55-.95,3.74-1.58,9.22-4.94,18.42-9.93,27.64-14.87,8.87-4.75,17.83-9.34,26.64-14.21,10.04-5.55,20.66-9.71,31.45-13.48,9.74-3.4,19.62-6.31,29.84-7.89,5.95-.92,11.91-1.35,17.89-.28.78.14,1.58.32,2.3.65,2.18.98,3.19,3.04,2.54,5.33-.6,2.11-1.66,3.97-3.49,5.31-3.14,2.29-6.55,3.89-10.39,4.7-14.7,3.09-28.79,7.91-41.95,15.23-6.74,3.75-12.91,8.26-18.21,13.93-1.64,1.75-2.1,3.69-1.91,5.91.37,4.42,2.6,7.64,6.43,9.78,3.42,1.91,7.17,2.67,11.02,2.96,7.3.55,14.53-.23,21.71-1.46,17.93-3.08,35.39-7.85,52.21-14.82,4.2-1.74,8.31-3.71,12.37-5.77,3.21-1.64,6.11-3.8,8.6-6.45,4.62-4.91,4.4-12.17,6.2-18.27,1.18-4.01,2.49-7.97,3.94-11.88,2.89-7.76,6.36-15.3,10.44-22.5s8.98-14.32,14.38-20.8c4.07-4.89,8.57-9.41,13.46-13.49s10.36-8.4,16.28-10.83c4.87-2,11-1.95,16.16-1.3,6.12.77,11.79,3.8,14.76,9.37,3.49,6.54,3.21,15.19,1.1,22.1-1.12,3.67-2.99,6.98-4.81,10.33-3.97,7.33-8.7,14.24-14.12,20.57-2.52,2.94-5.19,5.76-7.99,8.44-2.64,2.52-4.86,5.5-7.11,8.4-1.52,1.95-1.15,3.44.98,4.76.94.58,1.98,1.1,3.05,1.36,4.96,1.22,8.74,4.2,12.02,7.91,4.36,4.93,6.74,10.79,7.85,17.22.15.87.25,1.74.41,2.6.31,1.63,1.06,2.37,2.71,2.49.86.06,1.78.03,2.61-.21,1.68-.49,3.37-1.03,4.95-1.76,7.82-3.63,15.63-7.29,23.41-11.01,12.98-6.2,25.81-12.69,38.03-20.32,2.98-1.86,5.83-3.92,8.77-5.86,3.45-2.27,7.23-2.9,11.22-1.98,4.12.95,4.89,4.9,4.83,8.56-.02,1.36-.09,2.74-.5,4.04-.97,3.06-4.64,5.27-7.12,7.05-3.2,2.31-6.61,4.31-10.12,6.11-8.74,4.49-17.54,8.87-26.34,13.23-17.47,8.65-34.97,17.23-52.43,25.89-2.97,1.47-6.05,2-9.29,1.78-4.36-.3-7.53-2.42-9.38-6.41-1.2-2.58-1.61-5.33-1.64-8.16-.04-4.73-.48-9.42-1.74-14-.83-3.02-1.97-5.91-3.85-8.46-2.89-3.91-6.76-5.6-11.62-5.44-5.15.16-9.65,1.96-13.84,4.78-5.43,3.65-9.96,8.26-14,13.36-6.07,7.67-11.3,15.85-15.49,24.72-1.66,3.52-3.74,6.88-5.97,10.08-1.29,1.85-3.15,3.37-4.95,4.8-4.79,3.8-14.15-.99-14.16-7.27,0-1.35.04-2.75.4-4.03.77-2.76,1.5-5.54,2.5-8.24.49-1.33,1.01-2.74,1.68-3.99.63-1.17,1.5-2.18,1.88-3.48.54-1.81.06-4.48-2.36-4.01-.85.17-1.71.48-2.46.9-10.03,5.65-20.83,9.33-31.9,12.26-18.28,4.83-36.69,6.19-55.52,5.88-3.37-.05-6.75-.2-10.06-.86-10.31-2.06-17.19-12.92-18.75-22.68-.16-1.01-.38-2.06-.8-2.99-1.01-2.24-2.95-3.16-5.32-2.5-1.22.34-2.43.85-3.49,1.53-1.61,1.03-3.13,2.22-4.6,3.44-9.36,7.8-19.25,14.82-30.13,20.37-3.41,1.74-6.99,3.15-10.52,4.63-3.88,1.63-7.69,1.13-11.35-.69-2.59-1.29-4.95-2.9-6.55-5.44-.55-.86-1.31-1.62-2.1-2.28-2.39-2.02-4.6-2.16-7.26-.55-10.91,6.6-22.62,11.13-35.13,13.58-7.99,1.57-16.04,1.84-24.1.79-8.94-1.17-14.01-6.87-14.05-15.9-.01-3.16.44-6.4,1.24-9.46,2.34-9.02,5.92-17.55,11.19-25.3.85-1.25,1.85-2.61,1.04-4.19-.84-1.63-2.54-1.44-4.05-1.4-6.31.14-12.62.37-18.93.48-3.52.06-6.61,1.14-8.92,3.83-3.45,4.03-4.49,9.29-6.83,13.93-2.78,5.54-6.67,10.22-10.8,14.79-5.53,6.13-11.76,11.63-18.66,16.18-.91.6-1.83,1.19-2.77,1.75-7.84,4.77-16.45,7.38-25.41,8.85-3.95.65-7.99.51-11.91-.48-9.3-2.34-15.32-8.28-18.4-17.22-1.4-4.08-2.14-8.39-1.86-12.71.06-.87.12-1.83-.43-2.5-.54-.66-1.5-.78-2.35-.71-3.65.31-6.93,2.93-9.83,4.95-3.34,2.32-6.68,4.64-10.01,6.96-6.52,4.53-13.04,9.05-19.62,13.49-6.56,4.44-13.48,8.26-20.88,11.16-3.81,1.5-7.42,1.29-10.64-1.24-3.96-3.1-6.61-7.16-7.57-12.13-2.3-11.9-5.62-23.46-11.03-34.34-3.22-6.48-7.12-12.49-12.33-17.59-5.46-5.34-11.86-8.95-19.45-10.12-5.49-.85-11.01-.46-16.47.45-6.56,1.09-12.88,3.04-19.14,5.27-2.08.74-3.51,1.96-4.23,3.91-1.24,3.36-2.46,6.75-3.4,10.21-2.31,8.47-4.4,17-6.68,25.48-2.26,8.41-4.8,16.74-6.92,25.18-1.27,5.06-3.53,9.02-8.7,10.81h-3.36ZM726.35,177.69c-.05-2.16-.48-4.27-1.55-6.18s-2.91-3.47-5.07-3.71c-1.6-.18-3.2.38-4.64,1.11-2.47,1.25-4.65,3-6.71,4.85-6.14,5.51-10.96,11.99-15.62,18.74s-9.4,14.17-12.97,21.88c-2.28,4.94-4.18,10.03-4.74,15.49-.14,1.32-.05,2.73.25,4.01.56,2.36,2.15,3.18,4.32,2.15,1.56-.74,3.04-1.77,4.35-2.91,5.04-4.43,10.04-8.9,14.96-13.46,7.32-6.79,14.35-13.85,20.65-21.64,2.85-3.52,4.68-7.67,5.68-12.07.6-2.62,1.15-5.48,1.08-8.26ZM381.41,285.82c.2,0,.4-.02.6-.03,11.07-.65,21.98-3.96,31.55-9.57,5.82-3.41,11.12-7.65,16.09-12.2,4.51-4.13,10.17-8.64,13.16-14.05.41-.75.78-1.62.5-2.42-.77-2.15-4.55-1.83-6.31-1.73-9.47.52-18.46,2.18-27.17,6.03-8.79,3.89-16.87,9.31-24.13,15.58-4.11,3.55-8.11,7.58-9.86,12.72-.31.9-.54,1.88-.31,2.8.31,1.25,1.44,2.17,2.67,2.56,1.03.34,2.14.36,3.23.32ZM94.84,221.96c5.47.01,11.81-1.19,13.35-1.39,6.13-.81,12.05-2.43,17.61-5.22,3.63-1.83,6.75-4.29,9.09-7.63,2.98-4.25,3.3-8.75.83-13.33-.82-1.53-1.96-2.9-3.01-4.31-1.47-1.96-3.55-3-5.9-3.35-1.8-.27-3.66-.38-5.48-.25-4.5.33-8.5,2.18-12.21,4.6-8.27,5.39-15.31,12.72-20.59,21.12-.88,1.4-1.57,2.98-2.05,4.56-1.23,4.08,3.16,5.19,8.35,5.2ZM258.6,279.57c-.09,2.2.28,4.5,1.74,6.11,1.85,2.05,4.89,2.46,7.65,2.46,8.3-.01,16.51-2.57,23.67-6.77,7.16-4.2,13.32-10,18.42-16.55,2.68-3.43,5.14-7.23,5.76-11.54.1-.68.09-1.5-.47-1.9-.47-.34-1.12-.22-1.69-.08-16.77,4.1-34.27,8.56-49.12,17.69-3.52,2.16-5.55,5.68-5.93,9.76-.02.27-.04.54-.06.81Z"/>
    <path class="cls-1" d="M155.26.49c5.3,1.98,7.44,5.18,7.62,11.58.13,4.43-.68,8.75-1.66,13.04-1.79,7.9-4.49,15.49-7.74,22.89-7.73,17.58-16.42,34.66-27.03,50.71-3.17,4.8-6.64,9.39-10.05,14.03-3.24,4.41-7.1,8.22-11.47,11.51-3.38,2.55-6.77,5.09-10.16,7.64-.64.48-1.32.91-1.93,1.42-1.46,1.21-1.29,2.27.55,2.91.89.31,1.87.53,2.81.53,3.91,0,7.83.05,11.73-.17,11.11-.62,22.12-1.99,32.94-4.64,3.49-.85,6.9-1.99,10.39-2.87,1.93-.49,3.37-1.58,4.25-3.24,1.74-3.32,3.5-6.65,4.9-10.11,4.87-12.06,13.26-20.99,24.42-27.32,7.14-4.05,14.81-4.78,22.69-2.08.83.28,1.65.61,2.45.97,8.7,3.86,9.44,12.48,6.05,18.4-2.17,3.8-5.04,6.99-8.24,9.92-4.15,3.78-8.72,7-13.44,10.02-4.39,2.8-8.56,5.9-12.24,9.59-1.12,1.12-2.14,2.4-2.92,3.76-1.09,1.89-.42,3.38,1.76,3.63,1.62.19,3.34-.06,4.96-.38,6.15-1.23,11.93-3.55,17.57-6.24,7.38-3.51,14.36-7.71,21.11-12.29,18.92-12.84,37.5-26.15,55.74-39.93,1.26-.95,2.64-1.84,4.1-2.44,3.84-1.56,6.91-.33,8.81,3.35,1.34,2.6,1.88,5.44,2.11,8.31.19,2.31.29,4.63.25,6.94-.03,1.79.76,2.96,2.32,3.51,1.49.53,3.06.94,4.63,1.14,4.72.58,9.44.28,14.1-.5,6.69-1.13,13.36-2.4,19.98-3.88,2.45-.55,4.77-1.78,7.05-2.91,1.03-.51,1.98-1.4,2.66-2.34,1.44-1.96.6-4.57-1.75-5.16-2.07-.52-4.26-.75-6.39-.75-3.11,0-6.23.25-9.33.55-2.81.28-5.42-.3-7.87-1.56-2.83-1.45-3.57-3.74-2.18-6.62,1.17-2.41,2.81-4.42,5.25-5.73,6.7-3.59,13.83-4.81,21.34-3.91,3.73.45,7.43.96,11.21.29,5.2-.92,9.2-3.28,11.52-8.29.88-1.91,2.36-3.62,3.83-5.16,3.08-3.25,6.91-3.8,11.03-2.36,3.08,1.08,5.2,3.3,5.02,6.58-.24,4.44,2.96,5.43,6.3,5.09,3.73-.39,7.47-.84,11.16-1.5,6.21-1.1,12.39-2.38,18.58-3.57.86-.16,1.74-.37,2.6-.31,2.09.14,3.16,1.48,2.91,3.56-.28,2.28-1.43,4.17-3.4,5.25-1.93,1.06-4.04,1.95-6.17,2.49-9.76,2.46-19.44,5.19-28.88,8.7-3.29,1.22-6.5,2.65-9.77,3.95-1.99.79-3.67,2.02-4.84,3.78-2.16,3.26-4.39,6.49-6.24,9.93-4.09,7.61-7.24,15.66-10.17,23.78-.76,2.1-1.4,4.24-2.05,6.37-.16.53-.22,1.11-.21,1.66.06,2.06,1.11,2.92,3.14,2.42,1.15-.28,2.26-.79,3.32-1.32,29.09-14.52,58.17-29.06,87.25-43.61,2-1,3.92-2.18,5.96-3.06,2.04-.88,4.14-1.74,6.3-2.19,3.21-.67,5.63.86,6.23,4.08.43,2.31.58,4.82.16,7.11-1.61,8.8-3.51,17.55-5.26,26.32-.25,1.24-.48,2.54-.39,3.78.12,1.72,1.08,2.43,2.78,2.14,1.08-.18,2.16-.61,3.12-1.13,22.58-12.15,45.16-24.31,67.71-36.54,2.09-1.14,4.2-1.44,6.46-1.23,3.17.29,5.1,2.08,5.73,5.19.46,2.26.04,4.47-.54,6.63-.71,2.62-1.63,5.18-2.28,7.82-1.04,4.21-1.67,8.47-.93,12.82,1.13,6.7,5.03,10.23,11.84,10.7,5.48.38,10.63-.91,15.57-3.17,6.95-3.18,12.8-7.88,17.83-13.53,8.84-9.94,15.83-21.05,20.54-33.53.2-.52.39-1.05.66-1.53,3.51-6.15,8.87-7.18,14.5-2.28,1.87,1.63,2.6,3.86,2.37,6.28-.14,1.49-.52,3-1.05,4.4-2.85,7.46-5.8,14.88-8.7,22.32-.73,1.86-1.42,3.73-2.12,5.6-.22.6-.47,1.2-.61,1.82-.51,2.32.48,3.64,2.84,3.52,1.33-.07,2.73-.32,3.96-.83,3.17-1.31,6.35-2.63,9.36-4.26,11.41-6.16,22.2-13.3,32.65-20.98,6.68-4.91,13.93-8.74,21.93-11.04,5.92-1.7,11.89-2.31,17.98-.74,3.55.92,6.38,2.73,8.6,5.68,4.12,5.49,6.14,11.71,6.59,18.47.28,4.23.05,8.45-.78,12.64-.38,1.92-.44,3.99-.2,5.93.29,2.4,1.81,3.15,4.18,2.47.61-.18,1.21-.41,1.79-.67,19.17-8.87,36.85-20.16,53.6-32.94,7.69-5.86,15.15-12.03,22.67-18.1,3.8-3.07,7.7-5.99,12.14-8.09,1.21-.57,2.54-1.06,3.85-1.18,2.79-.26,4.92,1.32,5.35,4.05.54,3.45.49,6.97-1.91,9.81-2.78,3.29-5.55,6.65-8.73,9.53-16.07,14.59-33.19,27.83-51.84,39.01-15.41,9.25-31.58,16.8-48.91,21.73-12.3,3.5-24.82,5.42-37.65,4.57-8.97-.59-17.49-2.77-25.35-7.26-4.23-2.41-7.04-5.94-8.42-10.61-.99-3.35-2.44-4.46-5.91-4.28-1.41.07-2.92.28-4.19.85-2.61,1.17-5.22,2.43-7.6,4-6.26,4.13-12.92,7.29-20.15,9.3-1.24.34-2.33.31-3.49-.15-3.29-1.29-5.65-3.52-7.08-6.76-1.3-2.94-2.82-3.39-5.61-1.64-1.01.64-1.87,1.53-2.9,2.11-9.11,5.19-18.84,7.81-29.39,6.85-.87-.08-1.74-.27-2.57-.52-6.28-1.87-12.05-4.71-16.98-9.08-4.59-4.06-7.6-9.02-8.4-15.18-.16-1.26-.06-2.55-.12-3.82-.18-3.67-2.04-4.81-5.43-3.3-.73.32-1.44.71-2.1,1.15-12.74,8.44-26.1,15.82-39.55,23.02-7.46,3.99-15.16,7.53-22.78,11.2-1.43.69-2.97,1.21-4.52,1.53-4.38.91-7.53-1.08-8.77-5.37-.93-3.22-.73-6.51-.36-9.76.78-6.83,1.66-13.64,2.58-20.45.19-1.4.73-2.75,1.12-4.11.13-.46.36-.89.47-1.36.44-1.96-.26-2.79-2.21-2.52-.94.13-1.89.39-2.75.78-1.75.79-3.46,1.65-5.14,2.56-25.25,13.77-50.67,27.22-76.62,39.65-4.32,2.07-8.69,4.04-13.1,5.91-4.75,2.02-9.14.37-11.6-4.13-.96-1.76-1.18-3.7-.92-5.59.41-2.99.9-6.01,1.74-8.91,1.73-5.98,3.73-11.88,5.58-17.83.3-.98.54-2.02.57-3.04.08-2.27-1.04-3.49-3.32-3.42-1.49.05-3.02.37-4.44.85-6.1,2.06-12.35,3.21-18.78,3.52-7.25.35-14.36-.39-21.34-2.37-.23-.07-.46-.12-.69-.2-6.54-2.2-10.65,1.17-12.7,6.12-1.33,3.22-1.7,6.63-2.07,10.06-.7,6.48-2.26,12.73-5.26,18.57-1.94,3.77-4.8,6.55-8.79,8.08-1.43.55-2.88.91-4.44.51-3.38-.85-5.52-3.38-5.53-6.91,0-1.5.21-3.04.62-4.48,2.39-8.2,4.85-16.39,7.33-24.56.58-1.91,1.39-3.74,1.98-5.64.3-.96.85-2.25-.18-2.86-.6-.35-1.87.01-2.63.43-1.46.79-2.85,1.77-4.16,2.81-13.34,10.63-27.25,20.41-42.34,28.42-6.5,3.45-13.17,6.58-20.31,8.46-9.52,2.5-18.86,1.68-27.89-2.2-2.81-1.21-5.37-2.91-7.41-5.2-3.02-3.4-6.8-3.87-10.95-3.15-.7.12-1.42.31-2.06.61-5.6,2.63-11.69,3.11-17.67,4.03-9.11,1.4-18.3,1.74-27.49,1.87-17.82.24-35.65.56-53.48.47-9.18-.04-18.36-.76-27.53-1.42-4.74-.34-9.22-1.88-13.36-4.29-2.51-1.46-4.73-3.28-6.46-5.63-2.09-2.84-1.44-6.86,1.47-8.9,3.04-2.13,6.43-2.29,9.88-1.43,3.01.75,5.95,1.86,8.97,2.55,25.02,5.75,46.95-.61,66.24-17.07,7.86-6.71,14.26-14.65,19.41-23.59,5.7-9.9,11.37-19.82,16.97-29.78,2.46-4.39,4.86-8.83,7.01-13.37,1.74-3.67,3.12-7.51,4.58-11.3.42-1.09,1-2.41-.13-3.35-1.1-.92-2.26-.2-3.32.4-5.35,3.05-11.24,4.56-17.16,5.88-8.78,1.95-17.66,2.76-26.67,2.1-10.24-.75-20.07-3.1-29.21-7.78-8.92-4.57-17.81-4.42-26.8-.54-2.26.98-4.47,2.18-6.49,3.58-2.19,1.51-4.46,1.58-6.87,1.1-5.76-1.15-11.17-10.4-9.06-15.96,1.09-2.88,2.87-5.15,5.32-6.91,3.9-2.81,8.28-4.47,13-5.24,11.49-1.89,22.64-.25,33.46,3.7,7.82,2.85,15.66,5.53,23.85,7.12,9.16,1.78,18.36,2.62,27.64,1.17,5.76-.9,11.08-2.88,15.96-6.14,6.35-4.24,12.06-9.22,17.62-14.4,1.95-1.81,3.81-3.62,6.61-3.93h1.44ZM677.56,137.55c2.26-.07,4.52-.28,6.76-.56,3.91-.5,7.91-1.28,11.21-3.43,2.92-1.9,5.11-4.79,6.54-7.97s2.12-6.64,2.44-10.11c.47-5.13-.11-13.47-6.74-14.15-1.55-.16-3.14.09-4.65.43-12.98,2.97-24.57,10.14-35.51,17.74-1.79,1.24-3.57,2.5-5.17,3.98-.82.76-1.64,1.7-1.61,2.81.02.93.63,1.72,1.26,2.41,3.89,4.26,9.35,6.88,15,8.05,3.44.71,6.95.91,10.47.8ZM198.8,100.68c.13-.73.05-1.46-.4-2.07-.69-.94-2.06-.66-3-.36-1.82.58-3.46,1.64-5.06,2.67-2.14,1.38-4.18,2.97-6.08,4.68-3.84,3.46-7.2,7.43-10.31,11.56-.44.59-.9,1.24-.89,1.97.02,1.16,1.28,1.99,2.44,1.97s2.21-.66,3.18-1.3c4.99-3.3,9.44-7.33,13.87-11.35,1.61-1.46,3.22-2.92,4.61-4.59.65-.78,1.42-1.98,1.64-3.17Z"/>
    <path class="cls-1" d="M461.69,65.4c0-.07,0-.13,0-.2.04-1.08.12-2.16.24-3.24.05-.43.1-.86.31-1.24.83-1.54,3.92-1.41,5.42-1.56,2.28-.22,4.7-.21,6.81.82.91.44,1.74,1.09,2.24,1.97.61,1.08.65,2.39.53,3.63-.3,3.13-1.61,6.3-4.12,8.19-2.51,1.89-6.34,2.17-8.74.14-1.2-1.02-1.96-2.49-2.33-4.02s-.4-2.99-.35-4.5Z"/>
  </g>
</svg>