<?xml version="1.0" encoding="UTF-8"?>
<svg id="My_Icon" data-name="My Icon" xmlns="http://www.w3.org/2000/svg" viewBox="0 0 495.98 214.21">
  <defs>
    <style>
      .cls-1 {
        fill: #1f3131;
        stroke-width: 0px;
      }
    </style>
  </defs>
  <path id="dark" class="cls-1" d="M0,192.12c.2-.4.48-.79.6-1.21.68-2.44,2.06-4.32,4.25-5.64,3.42-2.06,7.15-2.57,10.95-1.8,3.59.73,7.1,1.85,10.63,2.86,4.81,1.38,9.7,2.32,14.65,2.98,4.85.64,9.72.98,14.62.96,12.45-.07,24.41-2.52,35.92-7.26,10.94-4.5,20.78-10.81,29.86-18.34,11.79-9.79,21.29-21.48,28.85-34.78,8.39-14.77,16.8-29.52,25.18-44.29,5.7-10.03,10.57-20.45,14.39-31.34.22-.64.41-1.3.51-1.97.3-1.99-1.43-3.34-3.47-2.72-.4.12-.79.31-1.15.52-6.89,4.03-14.44,6.23-22.13,8.05-5.32,1.26-10.68,2.28-16.1,2.93-5.9.7-11.83.98-17.79.85-4.84-.1-9.66-.47-14.45-1.14-10.94-1.55-21.47-4.53-31.38-9.51-3.96-1.99-8.04-3.65-12.4-4.51-7.18-1.41-14.23-.79-21.16,1.49-4.77,1.57-9.35,3.59-13.41,6.56-4.33,3.17-11.16,2.58-15.02-.62-4.75-3.93-7.57-8.94-8.33-15.07-.21-1.75.12-3.46.75-5.1,1.45-3.72,3.8-6.77,7.01-9.14,5.79-4.28,12.34-6.65,19.43-7.7,6.69-.99,13.4-1.26,20.13-.62,7.24.69,14.33,2.13,21.23,4.43,6.58,2.19,13.1,4.56,19.69,6.73,9.45,3.12,19.14,5.23,29.01,6.49,6.59.84,13.21,1.08,19.84.69,9.73-.57,19.06-2.7,27.45-7.87,3.71-2.29,7.24-4.87,10.72-7.5,6.22-4.7,11.94-9.99,17.65-15.27,1.47-1.36,2.99-2.68,4.86-3.46,2.54-1.06,5.09-1.1,7.6.13,4.46,2.18,6.92,5.8,7.71,10.65.75,4.62.52,9.23-.19,13.82-2.26,14.48-6.95,28.21-12.85,41.57-8.54,19.36-17.92,38.28-28.83,56.42-4.5,7.48-9.19,14.84-14.33,21.91-.29.4-.54.84-.65,1.43.47-.29.95-.57,1.42-.88,9.3-6.19,17.94-13.24,26.17-20.78,29.35-26.87,55.11-56.83,77.1-90,3.45-5.21,6.56-10.65,9.77-16.02,2.16-3.62,4.51-7.1,7.29-10.28,2.09-2.39,4.39-4.53,7.12-6.18,4.75-2.88,9.6-2.81,14.42-.31,2.91,1.51,4.16,4.22,4.4,7.38.12,1.52,0,3.05,0,4.57.01,2.39,1.06,3.36,3.47,3.51,3.15.19,6.16-.54,9.22-1.08,12.64-2.25,25.06-1.14,37.22,2.78,5.67,1.82,10.79,4.73,14.81,9.27,3.69,4.17,5.61,9.09,5.93,14.61.53,9.12-.9,17.9-4.72,26.25-3.22,7.05-7.86,13.03-13.54,18.25-.39.36-.79.7-1.15,1.08-1.72,1.76-1.9,3.42-.33,5.32,1.16,1.41,2.48,2.72,3.87,3.92,8.37,7.21,14.62,16.07,19.92,25.66,6.65,12.05,11.94,24.68,16.18,37.75,2.18,6.72,6.86,10.28,13.94,10.37,4.27.06,8.32-1,12.32-2.37,6.95-2.37,13.07-6.24,18.95-10.53,6.43-4.69,12.36-9.97,17.91-15.67,3.31-3.4,6.94-6.44,11.05-8.85,2.09-1.23,4.29-2.21,6.75-2.49,3.75-.43,6.51,2.57,6.63,5.44.11,2.82-.63,5.31-2.15,7.59-2.3,3.46-4.64,6.89-7.43,9.99-5.24,5.8-11.14,10.87-17.37,15.56-4.37,3.28-8.79,6.52-13.35,9.53-9.3,6.14-18.67,12.17-28.1,18.12-4.98,3.14-10.16,5.95-15.59,8.25-1.67.71-3.41,1.05-5.19,1.23-3.71.36-6.92-.85-9.77-3.19-5.25-4.32-8.38-9.82-9.66-16.51-2.68-14.04-6.62-27.71-12.64-40.72-3.66-7.91-7.98-15.41-13.68-22.05-5.7-6.64-12.3-12.07-20.56-15.27-5.1-1.98-10.4-2.92-15.86-3.03-9.99-.21-19.64,1.75-29.15,4.55-3.47,1.02-6.89,2.25-10.34,3.35-3.29,1.05-5.33,3.18-6.54,6.48-3.06,8.31-5.19,16.88-7.48,25.41-4.36,16.25-8.78,32.49-13.17,48.73-.51,1.88-.97,3.77-1.48,5.65-.65,2.4-1.55,4.69-2.9,6.79-1.58,2.45-3.67,4.31-6.3,5.57-.47.23-.92.49-1.38.73h-5.68c-.8-.37-1.57-.8-2.39-1.11-6.37-2.46-9.77-6.94-10.17-14.51-.33-6.36.76-12.56,2.05-18.74,2.44-11.74,5.69-23.26,9.48-34.62,5.69-17.09,11.51-34.13,17.28-51.19.16-.48.3-.98.44-1.47-.6.34-1.03.78-1.44,1.24-10.46,11.76-21.26,23.18-32.55,34.15-17.79,17.29-36.56,33.43-56.95,47.61-14.23,9.89-29.07,18.74-44.93,25.79-2.78,1.24-5.59,2.48-8.49,3.34-10.59,3.14-21.35,5.52-32.3,7.07-7.09,1-14.2,1.68-21.36,1.75-4.31.04-8.63-.12-12.93-.36-9.45-.53-18.66-2.31-27.54-5.63-5.09-1.9-9.94-4.28-14.3-7.57-1.73-1.3-3.04-2.88-3.55-5.05-.08-.33-.36-.61-.54-.91,0-.63,0-1.26,0-1.89ZM307.22,84.38c2.41-.2,4.83-.32,7.22-.62,3.23-.41,6.43-.99,9.65-1.43,6.38-.88,12.53-2.56,18.45-5.09,5.29-2.26,10.06-5.23,13.82-9.68,5.66-6.71,6.19-14.08,1.4-21.16-.94-1.39-1.97-2.73-3-4.05-1.58-2.02-3.66-3.33-6.15-3.88-3.78-.84-7.59-.98-11.43-.27-4.25.79-8.13,2.5-11.77,4.77-11.86,7.4-21.34,17.17-28.68,29.02-1.07,1.72-1.8,3.68-2.46,5.61-.86,2.5.02,4.27,2.41,5.41.52.25,1.07.44,1.62.59,2.92.8,5.91.85,8.91.79Z"/>
</svg>