<?xml version="1.0" encoding="UTF-8" standalone="no"?>
<svg
   viewBox="0 0 640 512"
   version="1.1"
   id="svg1"
   sodipodi:docname="close-rightbar.svg"
   inkscape:version="1.4 (86a8ad7, 2024-10-11)"
   xmlns:inkscape="http://www.inkscape.org/namespaces/inkscape"
   xmlns:sodipodi="http://sodipodi.sourceforge.net/DTD/sodipodi-0.dtd"
   xmlns="http://www.w3.org/2000/svg"
   xmlns:svg="http://www.w3.org/2000/svg">
  <defs
     id="defs1" />
  <sodipodi:namedview
     id="namedview1"
     pagecolor="#ffffff"
     bordercolor="#000000"
     borderopacity="0.25"
     inkscape:showpageshadow="2"
     inkscape:pageopacity="0.0"
     inkscape:pagecheckerboard="0"
     inkscape:deskcolor="#d1d1d1"
     inkscape:zoom="2.1015625"
     inkscape:cx="319.76208"
     inkscape:cy="256"
     inkscape:window-width="2560"
     inkscape:window-height="1334"
     inkscape:window-x="3829"
     inkscape:window-y="717"
     inkscape:window-maximized="1"
     inkscape:current-layer="svg1" />
  <!--!Font Awesome Free 6.7.2 by @fontawesome - https://fontawesome.com License - https://fontawesome.com/license/free Copyright 2025 Fonticons, Inc.-->
  <path
     d="m 64.025,448.1 h 370.7 c 16.99738,-0.003 33.2956,-6.76649 45.3,-18.8 l 150.6,-150.6 c 12.5,-12.5 12.5,-32.8 0,-45.3 L 480.025,82.8 c -12,-12 -28.3,-18.8 -45.3,-18.8 h -370.7 c -35.4,0 -64,28.7 -64,64 v 256.1 c 0,35.4 28.7,64 64,64 z m 84.7,-254.1 c -6.3,-6.3 -6.3,-16.4 0,-22.6 l 22.6,-22.6 c 6.3,-6.3 16.4,-6.3 22.6,0 l 62.1,62 62.1,-62.1 c 6.3,-6.3 16.4,-6.3 22.6,0 l 22.6,22.6 c 6.3,6.3 6.3,16.4 0,22.6 l -62.1,62.2 62.1,62.1 c 6.3,6.3 6.3,16.4 0,22.6 l -22.6,22.6 c -6.3,6.3 -16.4,6.3 -22.6,0 l -62.1,-62.1 -62.1,62.1 c -6.3,6.3 -16.4,6.3 -22.6,0 l -22.6,-22.6 c -6.3,-6.3 -6.3,-16.4 0,-22.6 l 62,-62.1 -62.1,-62.1 z"
     id="path1"
     sodipodi:nodetypes="sccssssssssccsccscsccscsccscscccc" />
</svg>
