<?xml version="1.0" encoding="UTF-8" standalone="no"?>
<svg
   viewBox="0 0 576 512"
   version="1.1"
   id="svg1"
   sodipodi:docname="eye.svg"
   inkscape:version="1.4 (86a8ad7, 2024-10-11)"
   xmlns:inkscape="http://www.inkscape.org/namespaces/inkscape"
   xmlns:sodipodi="http://sodipodi.sourceforge.net/DTD/sodipodi-0.dtd"
   xmlns="http://www.w3.org/2000/svg"
   xmlns:svg="http://www.w3.org/2000/svg">
  <defs
     id="defs1" />
  <sodipodi:namedview
     id="namedview1"
     pagecolor="#ffffff"
     bordercolor="#000000"
     borderopacity="0.25"
     inkscape:showpageshadow="2"
     inkscape:pageopacity="0.0"
     inkscape:pagecheckerboard="0"
     inkscape:deskcolor="#d1d1d1"
     inkscape:zoom="2.1015625"
     inkscape:cx="287.88104"
     inkscape:cy="256"
     inkscape:window-width="2560"
     inkscape:window-height="1334"
     inkscape:window-x="3829"
     inkscape:window-y="720"
     inkscape:window-maximized="1"
     inkscape:current-layer="svg1" />
  <path
     d="M 572.52,241.4 C 518.29,135.59 410.93,64 288,64 165.07,64 57.68,135.64 3.48,241.41 c -4.6392709,9.177 -4.6392709,20.013 0,29.19 C 57.71,376.41 165.07,448 288,448 c 122.93,0 230.32,-71.64 284.52,-177.41 4.63927,-9.177 4.63927,-20.013 0,-29.19 z M 288,400 C 229.7575,400 177.24952,364.91533 154.96235,311.10724 132.67521,257.29926 144.99831,195.36529 186.1818,154.1818 227.36529,112.99831 289.29926,100.67521 343.10724,122.96235 396.91533,145.24952 432,197.7575 432,256 c 0.0387,79.54503 -64.45497,144.0387 -144,144 z m 0,-240 c -8.56869,0.11975 -17.08208,1.39457 -25.31,3.79 14.01526,19.0462 12.01601,45.47397 -4.70501,62.19499 -16.72102,16.72102 -43.14879,18.72027 -62.19499,4.70501 -10.76153,39.64755 4.95989,81.74295 39.07524,104.62819 34.11521,22.88516 79.02445,21.46202 111.62792,-3.53244 32.60348,-24.99446 45.63979,-67.99353 32.39872,-106.88122 C 365.65077,186.01669 329.08199,159.9033 288,160 Z"
     id="path1"
     style="fill:#39853b;fill-opacity:1"
     sodipodi:nodetypes="csccscccsssccccscsssc" />
</svg>
