<?xml version="1.0" encoding="UTF-8" standalone="no"?>
<!-- Generator: Adobe Illustrator 24.2.1, SVG Export Plug-In . SVG Version: 6.00 Build 0)  -->

<svg
   version="1.1"
   id="Layer_1"
   x="0px"
   y="0px"
   viewBox="0 0 2000 2000"
   style="enable-background:new 0 0 2000 2000;"
   xml:space="preserve"
   sodipodi:docname="log-a-ticket (Rebrand).svg"
   inkscape:version="1.1.1 (3bf5ae0d25, 2021-09-20)"
   inkscape:export-filename="..\..\png-files\track-a-day.png"
   inkscape:export-xdpi="96"
   inkscape:export-ydpi="96"
   xmlns:inkscape="http://www.inkscape.org/namespaces/inkscape"
   xmlns:sodipodi="http://sodipodi.sourceforge.net/DTD/sodipodi-0.dtd"
   xmlns="http://www.w3.org/2000/svg"
   xmlns:svg="http://www.w3.org/2000/svg"><defs
   id="defs3"><rect
   x="27365.032"
   y="6399.3164"
   width="35.355339"
   height="141.42136"
   id="rect52712" /><rect
   x="2680"
   y="2280"
   width="1604"
   height="1972"
   id="rect3" /><rect
   x="1711.1984"
   y="678.82251"
   width="1209.1312"
   height="2271.4398"
   id="rect2" /><rect
   x="345.06811"
   y="229.1026"
   width="633.56768"
   height="1530.1791"
   id="rect1" />
		
		
		
	
	
</defs><sodipodi:namedview
   id="namedview3"
   pagecolor="#ffffff"
   bordercolor="#000000"
   borderopacity="0.25"
   inkscape:showpageshadow="2"
   inkscape:pageopacity="0.0"
   inkscape:pagecheckerboard="0"
   inkscape:deskcolor="#d1d1d1"
   inkscape:zoom="0.01"
   inkscape:cx="-9850"
   inkscape:cy="-1150"
   inkscape:window-width="1920"
   inkscape:window-height="1017"
   inkscape:window-x="1912"
   inkscape:window-y="-8"
   inkscape:window-maximized="1"
   inkscape:current-layer="Layer_1"
   showguides="true"
   inkscape:pageshadow="2"
   showgrid="false"
   inkscape:lockguides="true"
   inkscape:guide-bbox="true"><sodipodi:guide
     position="1079.9961,1904.3008"
     orientation="0,-1"
     id="guide3"
     inkscape:locked="true" /><sodipodi:guide
     position="198.49609,1039.9297"
     orientation="1,0"
     id="guide4"
     inkscape:locked="true" /><sodipodi:guide
     position="1010.1055,101.5"
     orientation="0,-1"
     id="guide5"
     inkscape:locked="true" /><sodipodi:guide
     position="1220.1953,887.74609"
     orientation="1,0"
     id="guide6"
     inkscape:locked="true" /><sodipodi:guide
     position="344.59375,1119"
     orientation="1,0"
     id="guide7"
     inkscape:locked="true" /><sodipodi:guide
     position="644.78516,240.69922"
     orientation="0,-1"
     id="guide8"
     inkscape:locked="true" /><sodipodi:guide
     position="0,2000"
     orientation="-1,0"
     id="guide9"
     inkscape:locked="true"
     inkscape:label=""
     inkscape:color="rgb(0,0,255)" /><sodipodi:guide
     position="627.89453,1772.6016"
     orientation="0,-1"
     id="guide10"
     inkscape:locked="true" /><sodipodi:guide
     position="0,0.88603905"
     orientation="-1,0"
     id="guide11"
     inkscape:locked="true"
     inkscape:label=""
     inkscape:color="rgb(0,0,255)" /><sodipodi:guide
     position="344.79297,1006.6523"
     orientation="0,-1"
     id="guide12"
     inkscape:locked="true" /><sodipodi:guide
     position="0,2000"
     orientation="0,1"
     id="guide59033"
     inkscape:label=""
     inkscape:locked="true"
     inkscape:color="rgb(0,0,255)" /><sodipodi:guide
     position="1999.8047,1368.3594"
     orientation="1,0"
     id="guide59064"
     inkscape:locked="true" /><sodipodi:guide
     position="0,1750"
     orientation="0,1"
     id="guide59147"
     inkscape:label=""
     inkscape:locked="true"
     inkscape:color="rgb(0,0,255)" /><sodipodi:guide
     position="0,250"
     orientation="0,1"
     id="guide59430"
     inkscape:label=""
     inkscape:locked="true"
     inkscape:color="rgb(0,0,255)" /><sodipodi:guide
     position="250,2000"
     orientation="-1,0"
     id="guide59432"
     inkscape:label=""
     inkscape:locked="true"
     inkscape:color="rgb(0,0,255)" /><sodipodi:guide
     position="0,250"
     orientation="-1,0"
     id="guide59452"
     inkscape:label=""
     inkscape:locked="true"
     inkscape:color="rgb(0,0,255)" /><sodipodi:guide
     position="1750,2000"
     orientation="-1,0"
     id="guide59454"
     inkscape:label=""
     inkscape:locked="true"
     inkscape:color="rgb(0,0,255)" /></sodipodi:namedview>
<style
   type="text/css"
   id="style1">
	.st0{fill:#F8AA55;}
	.st1{fill:#F48907;}
	.st2{fill:#F7F5FB;}
</style>
<text
   xml:space="preserve"
   id="text1"
   style="text-align:start;writing-mode:lr-tb;direction:ltr;white-space:pre;shape-inside:url(#rect1);display:inline;fill:#a8b8f3"
   transform="translate(581.25,-393.276)" /><text
   xml:space="preserve"
   id="text2"
   style="font-size:2000px;text-align:start;writing-mode:lr-tb;direction:ltr;white-space:pre;shape-inside:url(#rect2);shape-padding:132;display:inline;fill:#a8b8f3"
   transform="translate(581.25,-393.276)"><tspan
     x="1711.1992"
     y="4774.9224"
     id="tspan981"><tspan
       style="font-size:1333.33px;font-family:'Baloo Bhai 2';-inkscape-font-specification:'Baloo Bhai 2, '"
       id="tspan979">T</tspan></tspan></text><text
   xml:space="preserve"
   id="text3"
   style="font-style:normal;font-variant:normal;font-weight:normal;font-stretch:normal;font-size:1133.33px;font-family:'Baloo Bhai 2';-inkscape-font-specification:'Baloo Bhai 2, ';text-align:start;writing-mode:lr-tb;direction:ltr;white-space:pre;shape-inside:url(#rect3);shape-padding:312;display:inline;fill:#a8b8f3"
   transform="matrix(1.0036784,0,0,1.0036784,-2057.7096,-2549.9893)"><tspan
     x="2680"
     y="5140.2136"
     id="tspan985"><tspan
       style="fill:#39853b"
       id="tspan983">T</tspan></tspan></text><g
   aria-label="T L F"
   id="text2056-3"
   style="font-size:13333.3px;line-height:1.25"
   transform="translate(-770.7874,-10031.918)" /><g
   aria-label="T L F"
   id="text2056-1"
   style="font-size:13333.3px;line-height:1.25"
   transform="translate(32209.826,-12235.902)" /><text
   xml:space="preserve"
   id="text52710"
   style="font-style:normal;font-weight:normal;font-size:40px;line-height:1.25;font-family:sans-serif;white-space:pre;shape-inside:url(#rect52712);fill:#000000;fill-opacity:1;stroke:none"
   transform="translate(581.25,-393.276)" /><g
   aria-label="T L F"
   id="text2056-6"
   style="font-size:13333.3px;line-height:1.25"
   transform="translate(63221.391,-11264.656)"><path
     d="m 23206.481,-4808.6132 q 0,-573.3319 333.332,-906.6644 333.333,-333.3325 906.665,-333.3325 h 4439.988 q 93.333,146.6663 160,386.6657 80,239.9994 80,519.9987 0,506.6654 -226.666,733.3315 -213.333,226.6661 -586.666,226.6661 h -2799.992 v 1506.6629 h 2919.992 q 93.333,146.6663 173.333,386.6657 80,226.6661 80,506.6654 0,506.6654 -226.666,733.3315 -213.333,213.33277 -586.665,213.33277 H 25539.808 V 2018.0363 q -146.666,39.9999 -453.332,79.9998 -306.666,39.9999 -626.665,39.9999 -706.665,0 -986.664,-239.9994 -266.666,-239.9994 -266.666,-866.6645 z"
     style="font-weight:800;font-family:'Baloo Bhai 2';-inkscape-font-specification:'Baloo Bhai 2 Ultra-Bold'"
     id="path55890-6" /></g><g
   id="g63412"><path
     id="path1-4"
     style="fill:#000080;fill-opacity:1;stroke-width:0.829624;opacity:1"
     class="st1"
     d="M 511.49805 250 C 483.87157 250 465.61934 267.83761 464.20898 295.87891 C 462.38381 331.38682 453.00975 365.06814 433.34766 395.01758 C 418.82925 417.00261 397.83855 431.52204 375.85352 445.04492 C 354.78107 458.15297 331.88361 466.03396 306.58008 465.61914 C 293.96979 465.61914 281.35981 468.44011 269.66211 474.99414 C 259.78958 480.63558 253.7333 489.01539 250 499.30273 L 250 1474.0273 C 250.99555 1478.6731 251.90801 1483.318 253.31836 1488.0469 C 259.78943 1510.4467 277.12777 1523.5566 300.02539 1523.5566 C 326.24151 1523.5566 350.96621 1527.7032 374.85938 1538.4883 C 413.68578 1556.2423 437.99255 1587.1885 452.92578 1626.4297 C 460.39239 1645.594 464.54156 1665.7527 465.53711 1686.7422 C 466.94747 1718.019 487.5206 1739.0926 519.79297 1744.2363 C 521.20333 1744.6511 523.11308 1744.651 524.52344 1745.6465 L 960.10352 1750 C 960.10352 1749.3301 960.09407 1748.0057 960.09375 1747.3281 C 1017.5134 1749.0946 1110.3292 1749.8172 1275.4473 1749.9551 C 1620.0307 1750.2437 1644.6528 1749.516 1668.834 1738.3203 C 1726.2134 1711.7549 1750.133 1664.0454 1750.002 1576.4238 C 1749.9237 1523.8615 1740.8212 1484.3762 1716.9219 1432.9336 L 1708.6816 1415.1992 L 1429.3691 1415.1992 L 1150.0566 1415.1992 L 1148.2617 894.44531 L 1146.4668 373.69141 L 1127.1211 334.99805 C 1110.2451 301.24603 1103.1719 294.00083 1071.7441 278.27539 C 1039.431 262.10678 1002.9686 253.27993 958.06445 250.89258 C 958.06438 250.73262 958.05664 250.15647 958.05664 250 L 578.36523 250 L 511.49805 250 z M 577.53516 359.26172 L 648.63477 359.26172 L 733.5 359.26172 L 732.04492 912.17969 C 730.90992 1343.5837 732.58586 1564.666 737.16016 1586.8496 C 740.27116 1601.9378 745.20206 1616.4176 751.5625 1630.1621 L 588.23828 1630.1621 C 579.36131 1630.1621 579.36006 1630.1634 577.03711 1621.7012 C 561.10833 1566.5312 533.48234 1518.7446 490.50781 1480.416 C 457.73766 1451.3792 420.40466 1431.3007 378.25977 1420.5156 C 373.1161 1419.5201 371.20898 1417.1985 371.20898 1412.0547 L 371.20898 574.88086 C 371.20898 569.73718 372.61805 567.41427 377.76172 566.00391 C 418.4133 553.47659 455.41512 534.22879 487.6875 506.1875 C 521.37023 477.15066 546.17641 441.64295 561.60742 399.49805 C 565.34073 388.29813 569.07428 376.60005 570.98242 364.90234 C 571.4802 360.67126 573.38704 359.26172 577.53516 359.26172 z " /></g>
</svg>
