<?xml version="1.0" encoding="UTF-8" standalone="no"?>
<!-- Generator: Adobe Illustrator 24.2.1, SVG Export Plug-In . SVG Version: 6.00 Build 0)  -->

<svg
   version="1.1"
   id="Layer_1"
   x="0px"
   y="0px"
   viewBox="0 0 2000 2000"
   style="enable-background:new 0 0 2000 2000;"
   xml:space="preserve"
   sodipodi:docname="log-a-ticket (Outline).svg"
   inkscape:version="1.4 (86a8ad7, 2024-10-11)"
   inkscape:export-filename="..\..\png-files\log-a-ticket (Outline).png"
   inkscape:export-xdpi="96"
   inkscape:export-ydpi="96"
   xmlns:inkscape="http://www.inkscape.org/namespaces/inkscape"
   xmlns:sodipodi="http://sodipodi.sourceforge.net/DTD/sodipodi-0.dtd"
   xmlns="http://www.w3.org/2000/svg"
   xmlns:svg="http://www.w3.org/2000/svg"><defs
   id="defs3"><rect
   x="2680"
   y="2280"
   width="1604"
   height="1972"
   id="rect3" /><rect
   x="1711.1984"
   y="678.82251"
   width="1209.1312"
   height="2271.4398"
   id="rect2" /><rect
   x="345.06811"
   y="229.1026"
   width="633.56768"
   height="1530.1791"
   id="rect1" />
		
		
		
	</defs><sodipodi:namedview
   id="namedview3"
   pagecolor="#ffffff"
   bordercolor="#000000"
   borderopacity="0.25"
   inkscape:showpageshadow="2"
   inkscape:pageopacity="0.0"
   inkscape:pagecheckerboard="0"
   inkscape:deskcolor="#d1d1d1"
   inkscape:zoom="0.25"
   inkscape:cx="-350"
   inkscape:cy="818"
   inkscape:window-width="2560"
   inkscape:window-height="1334"
   inkscape:window-x="3829"
   inkscape:window-y="720"
   inkscape:window-maximized="1"
   inkscape:current-layer="g3"
   showguides="true"><sodipodi:guide
     position="1079.9961,1904.3008"
     orientation="0,-1"
     id="guide3"
     inkscape:locked="false" /><sodipodi:guide
     position="198.49609,1039.9297"
     orientation="1,0"
     id="guide4"
     inkscape:locked="false" /><sodipodi:guide
     position="1010.1055,101.5"
     orientation="0,-1"
     id="guide5"
     inkscape:locked="false" /><sodipodi:guide
     position="1220.1953,887.74609"
     orientation="1,0"
     id="guide6"
     inkscape:locked="false" /><sodipodi:guide
     position="344.59375,1119"
     orientation="1,0"
     id="guide7"
     inkscape:locked="false" /><sodipodi:guide
     position="644.78516,240.69922"
     orientation="0,-1"
     id="guide8"
     inkscape:locked="false" /><sodipodi:guide
     position="978.39844,1355.8242"
     orientation="1,0"
     id="guide9"
     inkscape:locked="false" /><sodipodi:guide
     position="627.89453,1772.6016"
     orientation="0,-1"
     id="guide10"
     inkscape:locked="false" /><sodipodi:guide
     position="661.5,1772.0781"
     orientation="1,0"
     id="guide11"
     inkscape:locked="false" /><sodipodi:guide
     position="344.79297,1006.6523"
     orientation="0,-1"
     id="guide12"
     inkscape:locked="false" /></sodipodi:namedview>
<style
   type="text/css"
   id="style1">
	.st0{fill:#F8AA55;}
	.st1{fill:#F48907;}
	.st2{fill:#F7F5FB;}
</style>
<g
   id="g3"
   inkscape:label="Log a Ticket"
   sodipodi:insensitive="true">
	<path
   class="st1"
   d="m 1795.3,170 v 33.8 c -1.2,4.5 -1.7,9 -2.8,14.1 -4,20.3 -11.8,39.5 -27,54.1 -18.6,18 -41.2,24.2 -66,24.2 h -470.8 c -7.3,0 -8.5,2.3 -8.5,9 v 1376.7 3.4 c -0.5,4.5 1.2,5 5,5 13.5,0 26.5,1.2 40,-0.5 12.4,-1.2 19.7,4 25.3,14.1 29.3,52.5 28.8,106 2.8,159.6 -8.5,17.5 -23.7,28.2 -42.3,32.7 -2.3,0.5 -5.7,0 -7.3,2.3 H 529.4 c -1.7,-1.2 -4,-1.2 -5.7,-1.7 -38.9,-6.2 -63.7,-31.6 -65.4,-69.3 -1.2,-25.3 -6.2,-49.6 -15.2,-72.7 -18,-47.3 -47.3,-84.6 -94.1,-106 -28.8,-13 -58.6,-18 -90.2,-18 -27.6,0 -48.5,-15.8 -56.3,-42.8 -1.7,-5.7 -2.8,-11.3 -4,-16.9 V 396.2 c 4.5,-12.4 11.8,-22.5 23.7,-29.3 14.1,-7.9 29.3,-11.3 44.5,-11.3 30.5,0.5 58.1,-9 83.5,-24.8 26.5,-16.3 51.8,-33.8 69.3,-60.3 23.7,-36.1 35,-76.7 37.2,-119.5 1.7,-33.8 23.7,-55.3 57,-55.3 H 594.3 1763 c 6.2,0 9.6,1.7 12.4,6.8 7.3,13 12.4,26.5 15.8,40.6 0.7,8.8 2.4,17.8 4.1,26.9 z M 978.4,993 V 238.1 c 0,-10.7 0,-10.7 -10.7,-10.7 H 679 593.3 c -5,0 -7.3,1.7 -7.9,6.8 -2.3,14.1 -6.8,28.2 -11.3,41.7 -18.6,50.8 -48.5,93.6 -89.1,128.6 -38.9,33.8 -83.5,57 -132.5,72.1 -6.2,1.7 -7.9,4.5 -7.9,10.7 v 1009.1 c 0,6.2 2.3,9 8.5,10.2 50.8,13 95.8,37.2 135.3,72.2 51.8,46.2 85.1,103.8 104.3,170.3 2.8,10.2 2.8,10.2 13.5,10.2 h 361.9 5.7 c 5.97227,-0.03 4.41351,0.2445 4.34384,-5.9348 l 0.17678,-6.9768 C 976.72062,1495.3884 978.4,1244.5 978.4,993 Z"
   id="path1"
   sodipodi:nodetypes="ccccsssccsccccccccccsccccccccscscccssscsccccsscccsccccs"
   style="fill:#070e27;fill-opacity:1" />
<text
   xml:space="preserve"
   id="text3"
   style="font-style:normal;font-variant:normal;font-weight:normal;font-stretch:normal;font-size:1133.33px;font-family:'Baloo Bhai 2';-inkscape-font-specification:'Baloo Bhai 2, ';text-align:start;writing-mode:lr-tb;direction:ltr;white-space:pre;shape-inside:url(#rect3);shape-padding:312;display:inline;fill:#a8b8f3"
   transform="matrix(1.0036784,0,0,1.0036784,-2638.9596,-2156.7133)"
   inkscape:label="Log a Ticket"><tspan
     x="2992"
     y="3480.2136"
     id="tspan2"><tspan
       style="fill:#070e27"
       id="tspan1">L</tspan></tspan></text></g>
</svg>
