<?xml version="1.0" encoding="UTF-8" standalone="no"?>
<!-- Created with Inkscape (http://www.inkscape.org/) -->

<svg
   version="1.1"
   id="svg1"
   width="2000"
   height="2000"
   viewBox="0 0 2000 2000"
   sodipodi:docname="log-ticket-light.svg"
   inkscape:version="1.4 (86a8ad7, 2024-10-11)"
   xmlns:inkscape="http://www.inkscape.org/namespaces/inkscape"
   xmlns:sodipodi="http://sodipodi.sourceforge.net/DTD/sodipodi-0.dtd"
   xmlns="http://www.w3.org/2000/svg"
   xmlns:svg="http://www.w3.org/2000/svg">
  <defs
     id="defs1" />
  <sodipodi:namedview
     id="namedview1"
     pagecolor="#ffffff"
     bordercolor="#000000"
     borderopacity="0.25"
     inkscape:showpageshadow="2"
     inkscape:pageopacity="0.0"
     inkscape:pagecheckerboard="0"
     inkscape:deskcolor="#d1d1d1"
     inkscape:zoom="0.38042345"
     inkscape:cx="862.19712"
     inkscape:cy="1038.3166"
     inkscape:window-width="2560"
     inkscape:window-height="1334"
     inkscape:window-x="3829"
     inkscape:window-y="720"
     inkscape:window-maximized="1"
     inkscape:current-layer="g1" />
  <g
     inkscape:groupmode="layer"
     inkscape:label="Image"
     id="g1">
    <path
       style="fill:#a8b8f3;fill-opacity:1"
       d="m 863,1748.9662 c -33.82243,0.5602 -122.925,-1.2191 -198,-1.8769 -147.41197,-1.2915 -142.12547,-1.0667 -159,-6.7628 -12.02146,-4.058 -20.44663,-9.8529 -28.12547,-19.3449 -7.69235,-9.5088 -10.44589,-17.9239 -12.39647,-37.885 -2.78643,-28.5147 -8.30268,-49.3388 -19.07876,-72.0232 -20.76699,-43.7159 -54.3337,-71.2599 -100.3993,-82.3851 -12.32153,-2.9757 -23.4128,-4.3672 -42,-5.2691 -15.87231,-0.7702 -23.21612,-2.7084 -31.64993,-8.3532 -9.84413,-6.5888 -15.72591,-15.8595 -19.86574,-31.3118 l -2.47929,-9.2542 -0.003,-487.77852 -0.003,-487.77851 2.88988,-5.72149 c 5.8169,-11.5165 15.45012,-19.01733 30.61012,-23.83433 6.29467,-2.00009 11.46065,-2.74085 24.23457,-3.47506 24.30724,-1.39709 37.7967,-4.76365 55.7857,-13.92241 11.09883,-5.65076 29.58163,-17.59601 40.97973,-26.48479 34.55932,-26.95101 54.84111,-69.45421 59.49537,-124.68051 0.58754,-6.97159 1.77912,-15.07159 2.64796,-18 5.23719,-17.65181 17.66586,-28.8715 35.20407,-31.77966 10.07846,-1.67119 455.67193,-0.92199 470.6526,0.79134 41.29206,4.72254 70.32836,12.47355 98.20706,26.21565 17.8673,8.80717 27.3877,15.15675 35.121,23.42373 7.5937,8.11767 25.6913,28.40209 34.3005,53.84534 l 6.1512,18.17922 1.8124,504.5 c 0.9969,277.475 1.8339,511.8125 1.8601,520.75 L 1150,1415 h 279.2821 279.2822 l 7.8587,17.25 c 25.1982,55.3107 32.8792,89.0679 32.9356,144.75 0.053,52.6905 -7.0593,85.6688 -24.5078,113.6315 -6.7569,10.8285 -20.1957,25.1502 -30.6656,32.6802 -10.0204,7.2067 -26.4966,15.8413 -35.4142,18.5593 -9.1604,2.792 -29.5568,4.9589 -58.271,6.1907 -59.6906,2.5606 -594.6982,-0.7262 -631.75,-0.7262 -7.54435,0 -7.55738,-0.029 -9.01138,-0.029 -1.68448,0 0.10447,0.056 -96.73862,1.6602 z M 751,1629.4121 c 0,-0.3233 -1.96938,-5.6108 -4.3764,-11.75 -2.40701,-6.1391 -5.54943,-15.6699 -6.98314,-21.1794 -6.79257,-26.1028 -7.16211,-58.7913 -7.0087,-619.9827 0.0725,-265.1 0.44724,-512.4875 0.83284,-549.75 L 734.1657,359 h -79.47207 c -74.27162,0 -79.60079,0.11452 -81.43921,1.75 -1.28602,1.14407 -2.56756,4.69311 -3.70121,10.25 -0.95374,4.675 -3.9044,15.10122 -6.55701,23.16937 -11.48269,34.92564 -30.99366,67.10508 -57.24147,94.40836 -33.27587,34.61394 -73.10942,59.22067 -122.00611,75.3679 -6.26914,2.07027 -10.28654,3.98426 -11.25,5.3598 C 371.17287,571.1982 371,620.13437 371,993.53138 c 0,336.09772 0.25465,422.43192 1.25,423.78272 0.70459,0.9562 7.03742,3.4407 14.51393,5.694 46.60978,14.0477 86.3471,38.251 119.16968,72.584 30.91059,32.333 51.67258,67.785 67.29431,114.9079 3.28195,9.9 6.48579,18.3306 7.11963,18.7347 1.35722,0.8652 170.65245,1.0412 170.65245,0.1774 z"
       id="path1"
       sodipodi:nodetypes="sssssssssscccsssssssssssscsccccsssssssssssssscsssssssssssssss" />
  </g>
</svg>
