<?xml version="1.0" encoding="UTF-8" standalone="no"?>
<!-- Created with Inkscape (http://www.inkscape.org/) -->

<svg
   version="1.1"
   id="svg1"
   width="2000"
   height="2000"
   viewBox="0 0 2000 2000"
   sodipodi:docname="track-day-dark.svg"
   inkscape:version="1.4 (86a8ad7, 2024-10-11)"
   xmlns:inkscape="http://www.inkscape.org/namespaces/inkscape"
   xmlns:sodipodi="http://sodipodi.sourceforge.net/DTD/sodipodi-0.dtd"
   xmlns="http://www.w3.org/2000/svg"
   xmlns:svg="http://www.w3.org/2000/svg">
  <defs
     id="defs1" />
  <sodipodi:namedview
     id="namedview1"
     pagecolor="#ffffff"
     bordercolor="#000000"
     borderopacity="0.25"
     inkscape:showpageshadow="2"
     inkscape:pageopacity="0.0"
     inkscape:pagecheckerboard="0"
     inkscape:deskcolor="#d1d1d1"
     inkscape:zoom="0.38042345"
     inkscape:cx="877.96901"
     inkscape:cy="998.8869"
     inkscape:window-width="2560"
     inkscape:window-height="1334"
     inkscape:window-x="3829"
     inkscape:window-y="720"
     inkscape:window-maximized="1"
     inkscape:current-layer="g1" />
  <g
     inkscape:groupmode="layer"
     inkscape:label="Image"
     id="g1">
    <path
       style="fill:#072007;fill-opacity:1"
       d="m 960.5,1748.9628 c -44.55,-0.3744 -160.2,-1.2116 -257,-1.8604 -173.30542,-1.1617 -176.14545,-1.2121 -185.5,-3.2946 -23.45355,-5.2212 -37.84234,-15.3284 -45.99385,-32.3078 -4.21681,-8.7835 -5.61623,-14.657 -6.55215,-27.5 -2.98127,-40.9099 -17.82013,-79.657 -41.36042,-108 -20.89362,-25.1564 -50.79113,-42.2379 -85.72902,-48.9803 -5.9039,-1.1393 -18.86366,-2.5176 -28.79947,-3.063 -21.02821,-1.1541 -28.24239,-2.8901 -37.3872,-8.9967 -9.77731,-6.5291 -16.18024,-16.8293 -20.1778,-32.4596 C 250.01339,1474.7324 250,1471.4144 250,986.81152 l 0,-487.86855 3.07761,-6.09672 c 4.42925,-8.77429 11.3487,-15.2444 21.20485,-19.82784 10.30035,-4.79 19.73531,-6.74328 35.89002,-7.43015 27.28791,-1.16025 46.63596,-7.89435 73.93908,-25.73453 24.34205,-15.9054 39.17617,-29.49139 49.29038,-45.14312 18.32915,-28.36435 27.23665,-55.92092 30.61468,-94.71061 0.59871,-6.875 1.54743,-14.24392 2.10828,-16.37537 4.58101,-17.40996 18.09842,-29.6262 36.15101,-32.67117 5.4899,-0.92599 76.08357,-0.92282 314.1526,0.0141 233.20259,0.91776 377.41599,0.93967 599.49209,0.0911 160.8313,-0.61458 292.7874,-0.75064 293.2357,-0.30235 1.4385,1.43855 20.4702,48.42059 24.7747,61.15962 5.1104,15.12375 10.488,37.08042 12.5146,51.09636 3.4699,23.99847 4.4316,55.75623 2.5131,82.98775 -3.4968,49.63361 -14.5787,76.20894 -44.4227,106.52962 -22.9943,23.36164 -40.4104,29.59054 -94.036,33.63231 -9.3679,0.70606 -63.9995,1.35725 -145.5,1.73431 l -130.5,0.60376 -0.2509,571.1829 c -0.2384,542.8843 -0.3375,571.2089 -2,571.708 -5.4183,1.6266 -46.8338,8.6884 -58.7491,10.0173 -46.8106,5.2209 -127.9622,8.7082 -195.5,8.4011 -20.075,-0.091 -72.95,-0.4722 -117.5,-0.8465 z M 927.6011,1626.25 C 923.58983,1600.0759 921.84862,1431.8203 920.54076,944 920.23478,829.875 919.70858,703.08869 919.37142,662.25265 L 918.75841,588.00531 734.73366,587.75265 550.70891,587.5 542.79611,568 c -4.35204,-10.725 -9.6681,-24.55901 -11.81346,-30.74225 -4.51185,-13.00383 -11.22261,-39.14706 -13.02911,-50.75775 -0.6846,-4.4 -1.32433,-8.10763 -1.42163,-8.23917 -0.0973,-0.13154 -7.11929,6.6299 -15.60441,15.02543 -32.60059,32.25638 -67.86511,53.80714 -113.4275,69.31754 -7.88185,2.68315 -13.68898,5.25074 -14.75,6.52162 -1.66058,1.98904 -1.75,23.62526 -1.75,423.43831 0,318.21517 0.28475,421.96717 1.16339,423.89557 0.91789,2.0145 2.65885,2.9831 8.25,4.5901 36.46422,10.4804 64.5583,24.2754 93.34943,45.8373 15.01125,11.242 37.46052,33.1585 49.28299,48.1133 23.62096,29.8793 41.55716,65.0636 53.01688,104 1.21406,4.125 2.89136,8.2875 3.72734,9.25 1.43665,1.6541 11.02435,1.75 174.95286,1.75 H 928.1758 Z"
       id="path1" />
  </g>
</svg>
