<?xml version="1.0" encoding="UTF-8" standalone="no"?>
<!-- Generator: Adobe Illustrator 24.2.1, SVG Export Plug-In . SVG Version: 6.00 Build 0)  -->

<svg
   version="1.1"
   id="Layer_1"
   x="0px"
   y="0px"
   viewBox="0 0 2000 2000"
   style="enable-background:new 0 0 2000 2000;"
   xml:space="preserve"
   sodipodi:docname="track-day.svg"
   inkscape:version="1.1.1 (3bf5ae0d25, 2021-09-20)"
   inkscape:export-filename="C:\Develop\development-portfolio_4.00\source\assets\svg-files\trinity-apps\track-day.png"
   inkscape:export-xdpi="96"
   inkscape:export-ydpi="96"
   xmlns:inkscape="http://www.inkscape.org/namespaces/inkscape"
   xmlns:sodipodi="http://sodipodi.sourceforge.net/DTD/sodipodi-0.dtd"
   xmlns="http://www.w3.org/2000/svg"
   xmlns:svg="http://www.w3.org/2000/svg"><defs
   id="defs3"><linearGradient
   id="linearGradient943"
   inkscape:swatch="solid"><stop
     style="stop-color:#072007;stop-opacity:1;"
     offset="0"
     id="stop941" /></linearGradient><rect
   x="27365.032"
   y="6399.3164"
   width="35.355339"
   height="141.42136"
   id="rect52712" /><rect
   x="2680"
   y="2280"
   width="1604"
   height="1972"
   id="rect3" /><rect
   x="1711.1984"
   y="678.82251"
   width="1209.1312"
   height="2271.4398"
   id="rect2" /><rect
   x="345.06811"
   y="229.1026"
   width="633.56768"
   height="1530.1791"
   id="rect1" />
		
		
		
	
	
</defs><sodipodi:namedview
   id="namedview3"
   pagecolor="#ffffff"
   bordercolor="#000000"
   borderopacity="0.25"
   inkscape:showpageshadow="2"
   inkscape:pageopacity="0.0"
   inkscape:pagecheckerboard="0"
   inkscape:deskcolor="#d1d1d1"
   inkscape:zoom="0.22627417"
   inkscape:cx="377.86019"
   inkscape:cy="1115.9029"
   inkscape:window-width="1920"
   inkscape:window-height="1017"
   inkscape:window-x="1912"
   inkscape:window-y="-8"
   inkscape:window-maximized="1"
   inkscape:current-layer="Layer_1"
   showguides="true"
   inkscape:pageshadow="2"
   showgrid="false"
   inkscape:lockguides="true"
   inkscape:guide-bbox="true"><sodipodi:guide
     position="1079.9961,1904.3008"
     orientation="0,-1"
     id="guide3"
     inkscape:locked="true" /><sodipodi:guide
     position="198.49609,1039.9297"
     orientation="1,0"
     id="guide4"
     inkscape:locked="true" /><sodipodi:guide
     position="1010.1055,101.5"
     orientation="0,-1"
     id="guide5"
     inkscape:locked="true" /><sodipodi:guide
     position="1220.1953,887.74609"
     orientation="1,0"
     id="guide6"
     inkscape:locked="true" /><sodipodi:guide
     position="344.59375,1119"
     orientation="1,0"
     id="guide7"
     inkscape:locked="true" /><sodipodi:guide
     position="644.78516,240.69922"
     orientation="0,-1"
     id="guide8"
     inkscape:locked="true" /><sodipodi:guide
     position="0,2000"
     orientation="-1,0"
     id="guide9"
     inkscape:locked="true"
     inkscape:label=""
     inkscape:color="rgb(0,0,255)" /><sodipodi:guide
     position="627.89453,1772.6016"
     orientation="0,-1"
     id="guide10"
     inkscape:locked="true" /><sodipodi:guide
     position="0,0.88603905"
     orientation="-1,0"
     id="guide11"
     inkscape:locked="true"
     inkscape:label=""
     inkscape:color="rgb(0,0,255)" /><sodipodi:guide
     position="344.79297,1006.6523"
     orientation="0,-1"
     id="guide12"
     inkscape:locked="true" /><sodipodi:guide
     position="0,2000"
     orientation="0,1"
     id="guide59033"
     inkscape:label=""
     inkscape:locked="true"
     inkscape:color="rgb(0,0,255)" /><sodipodi:guide
     position="1999.8047,1368.3594"
     orientation="1,0"
     id="guide59064"
     inkscape:locked="true" /><sodipodi:guide
     position="0,1750"
     orientation="0,1"
     id="guide59147"
     inkscape:label=""
     inkscape:locked="true"
     inkscape:color="rgb(0,0,255)" /><sodipodi:guide
     position="0,250"
     orientation="0,1"
     id="guide59430"
     inkscape:label=""
     inkscape:locked="true"
     inkscape:color="rgb(0,0,255)" /><sodipodi:guide
     position="250,2000"
     orientation="-1,0"
     id="guide59432"
     inkscape:label=""
     inkscape:locked="true"
     inkscape:color="rgb(0,0,255)" /><sodipodi:guide
     position="0,250"
     orientation="-1,0"
     id="guide59452"
     inkscape:label=""
     inkscape:locked="true"
     inkscape:color="rgb(0,0,255)" /><sodipodi:guide
     position="1750,2000"
     orientation="-1,0"
     id="guide59454"
     inkscape:label=""
     inkscape:locked="true"
     inkscape:color="rgb(0,0,255)" /></sodipodi:namedview>
<style
   type="text/css"
   id="style1">
	.st0{fill:#F8AA55;}
	.st1{fill:#F48907;}
	.st2{fill:#F7F5FB;}
</style>
<text
   xml:space="preserve"
   id="text1"
   style="text-align:start;writing-mode:lr-tb;direction:ltr;white-space:pre;shape-inside:url(#rect1);display:inline;fill:#a8b8f3"
   transform="translate(581.25,-393.276)" /><text
   xml:space="preserve"
   id="text2"
   style="font-size:2000px;text-align:start;writing-mode:lr-tb;direction:ltr;white-space:pre;shape-inside:url(#rect2);shape-padding:132;display:inline;fill:#a8b8f3"
   transform="translate(581.25,-393.276)"><tspan
     x="1711.1992"
     y="4774.9224"
     id="tspan1079"><tspan
       style="font-size:1333.33px;font-family:'Baloo Bhai 2';-inkscape-font-specification:'Baloo Bhai 2, '"
       id="tspan1077">T</tspan></tspan></text><text
   xml:space="preserve"
   id="text3"
   style="font-style:normal;font-variant:normal;font-weight:normal;font-stretch:normal;font-size:1133.33px;font-family:'Baloo Bhai 2';-inkscape-font-specification:'Baloo Bhai 2, ';text-align:start;writing-mode:lr-tb;direction:ltr;white-space:pre;shape-inside:url(#rect3);shape-padding:312;display:inline;fill:#a8b8f3"
   transform="matrix(1.0036784,0,0,1.0036784,-2057.7096,-2549.9893)"><tspan
     x="2680"
     y="5140.2136"
     id="tspan1083"><tspan
       style="fill:#39853b"
       id="tspan1081">T</tspan></tspan></text><g
   aria-label="T L F"
   id="text2056-3"
   style="font-size:13333.3px;line-height:1.25"
   transform="translate(-770.7874,-10031.918)" /><g
   aria-label="T L F"
   id="text2056-1"
   style="font-size:13333.3px;line-height:1.25"
   transform="translate(32209.826,-12235.902)" /><text
   xml:space="preserve"
   id="text52710"
   style="font-style:normal;font-weight:normal;font-size:40px;line-height:1.25;font-family:sans-serif;white-space:pre;shape-inside:url(#rect52712);fill:#000000;fill-opacity:1;stroke:none"
   transform="translate(581.25,-393.276)" /><g
   aria-label="T L F"
   id="text2056-6"
   style="font-size:13333.3px;line-height:1.25"
   transform="translate(63221.391,-11264.656)"><path
     d="m 23206.481,-4808.6132 q 0,-573.3319 333.332,-906.6644 333.333,-333.3325 906.665,-333.3325 h 4439.988 q 93.333,146.6663 160,386.6657 80,239.9994 80,519.9987 0,506.6654 -226.666,733.3315 -213.333,226.6661 -586.666,226.6661 h -2799.992 v 1506.6629 h 2919.992 q 93.333,146.6663 173.333,386.6657 80,226.6661 80,506.6654 0,506.6654 -226.666,733.3315 -213.333,213.33277 -586.665,213.33277 H 25539.808 V 2018.0363 q -146.666,39.9999 -453.332,79.9998 -306.666,39.9999 -626.665,39.9999 -706.665,0 -986.664,-239.9994 -266.666,-239.9994 -266.666,-866.6645 z"
     style="font-weight:800;font-family:'Baloo Bhai 2';-inkscape-font-specification:'Baloo Bhai 2 Ultra-Bold'"
     id="path55890-6" /></g><path
   id="path1"
   style="opacity:1;fill:#072007;fill-opacity:1;stroke-width:0.83;stroke-miterlimit:4;stroke-dasharray:none"
   class="st1"
   d="m 511.5,250 c -27.62647,0 -45.87674,17.83761 -47.28711,45.87891 -1.82517,35.5079 -11.20119,69.18924 -30.86328,99.13867 -14.51843,21.98503 -35.50715,36.50446 -57.49219,50.02734 -21.07245,13.10806 -43.96991,20.98903 -69.27344,20.57422 -12.61028,0 -25.22026,2.82098 -36.91796,9.375 -9.87253,5.64145 -15.9288,14.02125 -19.66211,24.30859 v 974.72457 c 0.99555,4.6459 1.908,9.2909 3.31836,14.0196 6.47106,22.4 23.80941,35.5097 46.70703,35.5097 26.21612,0 50.93886,4.1465 74.83203,14.9317 38.82641,17.7539 63.13513,48.7002 78.06836,87.9414 7.46661,19.1644 11.61382,39.323 12.60937,60.3125 1.41036,31.2767 21.98544,52.3504 54.25782,57.4941 1.41036,0.4149 3.31816,0.4147 4.72851,1.4102 L 1098.1055,1750 c 0,-0.072 -0,-0.2165 -0,-0.2891 55.8974,0.6724 162.4046,-4.6469 196.4199,-11.0586 l 39.8907,-7.5195 v -571.373 -571.37308 l 154.7832,-0.14258 c 174.2298,-0.16069 188.0592,-3.06386 226.373,-47.50781 25.2375,-29.2754 34.4336,-62.55325 34.4336,-124.61914 0,-51.47892 -7.0499,-85.85229 -27.6973,-135.06446 L 1709.2793,250 l -546.4629,1.79883 c -29.2375,0.0962 -40.4134,0.20143 -66.7422,0.2832 -4e-4,-0.38383 -0.016,0.28294 -0.016,-0.082 l -517.68946,-2 z m 4.80469,227.27344 c 3.97942,26.33981 10.94796,52.82612 21.18164,77.90625 l 13.55078,33.20703 h 184.06641 184.0664 l 1.77735,521.68558 c 1.24481,365.3043 2.01696,476.3343 6.90039,520.0898 H 588.24023 c -8.87697,0 -8.87626,0 -11.19921,-8.4609 -15.92878,-55.17 -43.55478,-102.9566 -86.5293,-141.2852 -32.77014,-29.0369 -70.10314,-49.1153 -112.24805,-59.9004 -5.14366,-0.9955 -7.05273,-3.3171 -7.05273,-8.4609 V 574.88086 c 0,-5.14367 1.41102,-7.46659 6.55468,-8.87695 40.65157,-12.52732 77.65146,-31.77512 109.92383,-59.81641 10.42925,-8.99073 19.90287,-18.67762 28.61524,-28.91406 z"
   sodipodi:nodetypes="sccccccccscccccccscccsssccscccscccccccscccssccc" />
</svg>
