<?xml version="1.0" encoding="UTF-8" standalone="no"?>
<!-- Generator: Adobe Illustrator 24.2.1, SVG Export Plug-In . SVG Version: 6.00 Build 0)  -->

<svg
   version="1.1"
   id="Layer_1"
   x="0px"
   y="0px"
   viewBox="0 0 2000 2000"
   style="enable-background:new 0 0 2000 2000;"
   xml:space="preserve"
   sodipodi:docname="find-link.svg"
   inkscape:version="1.1.1 (3bf5ae0d25, 2021-09-20)"
   inkscape:export-filename="C:\Develop\development-portfolio_4.00\source\assets\svg-files\trinity-apps\find-link.png"
   inkscape:export-xdpi="96"
   inkscape:export-ydpi="96"
   xmlns:inkscape="http://www.inkscape.org/namespaces/inkscape"
   xmlns:sodipodi="http://sodipodi.sourceforge.net/DTD/sodipodi-0.dtd"
   xmlns="http://www.w3.org/2000/svg"
   xmlns:svg="http://www.w3.org/2000/svg"><defs
   id="defs3"><rect
   x="27365.032"
   y="6399.3164"
   width="35.355339"
   height="141.42136"
   id="rect52712" /><rect
   x="2680"
   y="2280"
   width="1604"
   height="1972"
   id="rect3" /><rect
   x="1711.1984"
   y="678.82251"
   width="1209.1312"
   height="2271.4398"
   id="rect2" /><rect
   x="345.06811"
   y="229.1026"
   width="633.56768"
   height="1530.1791"
   id="rect1" />
		
		
		
	
	
</defs><sodipodi:namedview
   id="namedview3"
   pagecolor="#ffffff"
   bordercolor="#000000"
   borderopacity="0.25"
   inkscape:showpageshadow="2"
   inkscape:pageopacity="0.0"
   inkscape:pagecheckerboard="0"
   inkscape:deskcolor="#d1d1d1"
   inkscape:zoom="0.32"
   inkscape:cx="470.3125"
   inkscape:cy="1004.6875"
   inkscape:window-width="1920"
   inkscape:window-height="1017"
   inkscape:window-x="1912"
   inkscape:window-y="-8"
   inkscape:window-maximized="1"
   inkscape:current-layer="Layer_1"
   showguides="true"
   inkscape:pageshadow="2"
   showgrid="false"
   inkscape:lockguides="true"
   inkscape:guide-bbox="true"><sodipodi:guide
     position="1079.9961,1904.3008"
     orientation="0,-1"
     id="guide3"
     inkscape:locked="true" /><sodipodi:guide
     position="198.49609,1039.9297"
     orientation="1,0"
     id="guide4"
     inkscape:locked="true" /><sodipodi:guide
     position="1010.1055,101.5"
     orientation="0,-1"
     id="guide5"
     inkscape:locked="true" /><sodipodi:guide
     position="1220.1953,887.74609"
     orientation="1,0"
     id="guide6"
     inkscape:locked="true" /><sodipodi:guide
     position="344.59375,1119"
     orientation="1,0"
     id="guide7"
     inkscape:locked="true" /><sodipodi:guide
     position="644.78516,240.69922"
     orientation="0,-1"
     id="guide8"
     inkscape:locked="true" /><sodipodi:guide
     position="0,2000"
     orientation="-1,0"
     id="guide9"
     inkscape:locked="true"
     inkscape:label=""
     inkscape:color="rgb(0,0,255)" /><sodipodi:guide
     position="627.89453,1772.6016"
     orientation="0,-1"
     id="guide10"
     inkscape:locked="true" /><sodipodi:guide
     position="0,0.88603905"
     orientation="-1,0"
     id="guide11"
     inkscape:locked="true"
     inkscape:label=""
     inkscape:color="rgb(0,0,255)" /><sodipodi:guide
     position="344.79297,1006.6523"
     orientation="0,-1"
     id="guide12"
     inkscape:locked="true" /><sodipodi:guide
     position="0,2000"
     orientation="0,1"
     id="guide59033"
     inkscape:label=""
     inkscape:locked="true"
     inkscape:color="rgb(0,0,255)" /><sodipodi:guide
     position="1999.8047,1368.3594"
     orientation="1,0"
     id="guide59064"
     inkscape:locked="true" /><sodipodi:guide
     position="0,1750"
     orientation="0,1"
     id="guide59147"
     inkscape:label=""
     inkscape:locked="true"
     inkscape:color="rgb(0,0,255)" /><sodipodi:guide
     position="0,250"
     orientation="0,1"
     id="guide59430"
     inkscape:label=""
     inkscape:locked="true"
     inkscape:color="rgb(0,0,255)" /><sodipodi:guide
     position="250,2000"
     orientation="-1,0"
     id="guide59432"
     inkscape:label=""
     inkscape:locked="true"
     inkscape:color="rgb(0,0,255)" /><sodipodi:guide
     position="0,250"
     orientation="-1,0"
     id="guide59452"
     inkscape:label=""
     inkscape:locked="true"
     inkscape:color="rgb(0,0,255)" /><sodipodi:guide
     position="1750,2000"
     orientation="-1,0"
     id="guide59454"
     inkscape:label=""
     inkscape:locked="true"
     inkscape:color="rgb(0,0,255)" /><sodipodi:guide
     position="0,2000"
     orientation="0,2000"
     inkscape:locked="true"
     id="guide856" /><sodipodi:guide
     position="2000,2000"
     orientation="2000,0"
     inkscape:locked="true"
     id="guide858" /><sodipodi:guide
     position="2000,0"
     orientation="0,-2000"
     inkscape:locked="true"
     id="guide860" /><sodipodi:guide
     position="0,0"
     orientation="-2000,0"
     inkscape:locked="true"
     id="guide862" /></sodipodi:namedview>
<style
   type="text/css"
   id="style1">
	.st0{fill:#F8AA55;}
	.st1{fill:#F48907;}
	.st2{fill:#F7F5FB;}
</style>
<text
   xml:space="preserve"
   id="text1"
   style="text-align:start;writing-mode:lr-tb;direction:ltr;white-space:pre;shape-inside:url(#rect1);display:inline;fill:#a8b8f3"
   transform="translate(581.25,-393.276)" /><text
   xml:space="preserve"
   id="text2"
   style="font-size:2000px;text-align:start;writing-mode:lr-tb;direction:ltr;white-space:pre;shape-inside:url(#rect2);shape-padding:132;display:inline;fill:#a8b8f3"
   transform="translate(581.25,-393.276)"><tspan
     x="1711.1992"
     y="4774.9224"
     id="tspan960"><tspan
       style="font-size:1333.33px;font-family:'Baloo Bhai 2';-inkscape-font-specification:'Baloo Bhai 2, '"
       id="tspan958">T</tspan></tspan></text><text
   xml:space="preserve"
   id="text3"
   style="font-style:normal;font-variant:normal;font-weight:normal;font-stretch:normal;font-size:1133.33px;font-family:'Baloo Bhai 2';-inkscape-font-specification:'Baloo Bhai 2, ';text-align:start;writing-mode:lr-tb;direction:ltr;white-space:pre;shape-inside:url(#rect3);shape-padding:312;display:inline;fill:#a8b8f3"
   transform="matrix(1.0036784,0,0,1.0036784,-2057.7096,-2549.9893)"><tspan
     x="2680"
     y="5140.2136"
     id="tspan964"><tspan
       style="fill:#39853b"
       id="tspan962">T</tspan></tspan></text><g
   aria-label="T L F"
   id="text2056-3"
   style="font-size:13333.3px;line-height:1.25"
   transform="translate(-770.7874,-10031.918)" /><g
   aria-label="T L F"
   id="text2056-1"
   style="font-size:13333.3px;line-height:1.25"
   transform="translate(32209.826,-12235.902)" /><text
   xml:space="preserve"
   id="text52710"
   style="font-style:normal;font-weight:normal;font-size:40px;line-height:1.25;font-family:sans-serif;white-space:pre;shape-inside:url(#rect52712);fill:#000000;fill-opacity:1;stroke:none"
   transform="translate(581.25,-393.276)" /><g
   aria-label="T L F"
   id="text2056-6"
   style="font-size:13333.3px;line-height:1.25"
   transform="translate(63221.391,-11264.656)"><path
     d="m 23206.481,-4808.6132 q 0,-573.3319 333.332,-906.6644 333.333,-333.3325 906.665,-333.3325 h 4439.988 q 93.333,146.6663 160,386.6657 80,239.9994 80,519.9987 0,506.6654 -226.666,733.3315 -213.333,226.6661 -586.666,226.6661 h -2799.992 v 1506.6629 h 2919.992 q 93.333,146.6663 173.333,386.6657 80,226.6661 80,506.6654 0,506.6654 -226.666,733.3315 -213.333,213.33277 -586.665,213.33277 H 25539.808 V 2018.0363 q -146.666,39.9999 -453.332,79.9998 -306.666,39.9999 -626.665,39.9999 -706.665,0 -986.664,-239.9994 -266.666,-239.9994 -266.666,-866.6645 z"
     style="font-weight:800;font-family:'Baloo Bhai 2';-inkscape-font-specification:'Baloo Bhai 2 Ultra-Bold'"
     id="path55890-6" /></g><g
   id="g63905"
   transform="translate(424.26407,-5.6835)"><path
     id="path1-4-6"
     style="fill:#800000;fill-opacity:1;stroke-width:0.829624"
     class="st1"
     d="M 511.49805 250 C 483.87156 250 465.61935 267.83761 464.20898 295.87891 C 462.38381 331.38683 453.00975 365.06814 433.34766 395.01758 C 418.82923 417.00262 397.83856 431.52204 375.85352 445.04492 C 354.78106 458.15298 331.88362 466.03396 306.58008 465.61914 C 293.96979 465.61914 281.35981 468.44011 269.66211 474.99414 C 259.78957 480.63559 253.7333 489.01539 250 499.30273 L 250 1474.0273 C 250.99555 1478.6732 251.908 1483.318 253.31836 1488.0469 C 259.78942 1510.4468 277.12776 1523.5566 300.02539 1523.5566 C 326.24152 1523.5566 350.9662 1527.7032 374.85938 1538.4883 C 413.68579 1556.2423 437.99255 1587.1885 452.92578 1626.4297 C 460.3924 1645.5941 464.54156 1665.7527 465.53711 1686.7422 C 466.94747 1718.019 487.52059 1739.0926 519.79297 1744.2363 C 521.20333 1744.6511 523.11307 1744.651 524.52344 1745.6465 L 856.87305 1749.3223 C 871.43098 1749.8312 887.32451 1749.9834 903.97461 1749.8438 L 918.10352 1750 C 918.10352 1749.9412 918.10352 1749.8245 918.10352 1749.7656 C 968.0516 1748.8257 1020.8177 1745.1817 1052.7305 1739.2754 L 1093.3711 1731.7539 L 1093.3711 1469.4004 L 1093.3711 1207.0469 L 1332.334 1205.123 C 1566.4749 1203.2368 1571.8554 1202.9006 1598.9258 1188.4395 C 1635.7174 1168.7854 1658.3464 1133.0161 1667.3906 1080.2168 C 1676.3066 1028.1657 1666.6989 960.91118 1642.9316 908.99609 L 1627.2891 874.82617 L 1357.0781 874.82617 L 1086.8691 874.82617 L 1086.8691 731.77344 L 1086.8691 588.7207 L 1363.4297 588.7207 C 1668.1164 588.7207 1667.4205 588.80201 1709.6523 547.92773 C 1722.2648 535.72078 1734.8721 514.14142 1740.5391 495.05859 C 1758.7092 433.87329 1750.1101 341.89962 1719.9355 274.68164 L 1708.8555 250 L 1275.9434 252.03516 C 1148.3166 252.63534 1066.5804 253.24296 1001.6836 254 L 578.36523 254 L 511.49805 250 z M 577.53516 359.26172 L 648.63477 359.26172 L 698.20898 359.26172 C 694.86715 364.73077 691.90488 370.21176 689.45312 375.63672 L 673.9668 409.9043 L 673.9668 1017.8789 C 673.9668 1417.969 673.64937 1565.8406 681.32422 1630.1621 L 588.23828 1630.1621 C 579.3613 1630.1621 579.36006 1630.1634 577.03711 1621.7012 C 561.10832 1566.5312 533.48235 1518.7447 490.50781 1480.416 C 457.73766 1451.3792 420.40468 1431.3007 378.25977 1420.5156 C 373.1161 1419.52 371.20898 1417.1983 371.20898 1412.0547 L 371.20898 574.88086 C 371.20898 569.73719 372.61805 567.41427 377.76172 566.00391 C 418.41331 553.47658 455.41512 534.2288 487.6875 506.1875 C 521.37024 477.15065 546.17642 441.64295 561.60742 399.49805 C 565.34073 388.29812 569.07429 376.60005 570.98242 364.90234 C 571.4802 360.67126 573.38704 359.26172 577.53516 359.26172 z "
     transform="translate(-424.26407,5.6835)" /></g>
</svg>
